<?xml version="1.0" encoding="UTF-8" standalone="no"?><svg xmlns="http://www.w3.org/2000/svg" xmlns:xlink="http://www.w3.org/1999/xlink" contentStyleType="text/css" height="687px" preserveAspectRatio="none" style="width:1261px;height:687px;background:#FFFFFF;" version="1.1" viewBox="0 0 1261 687" width="1261px" zoomAndPan="magnify"><defs/><g><rect fill="#FFFFFF" height="500.8842" style="stroke:#181818;stroke-width:1.0;" width="10" x="18.5" y="94.0679"/><rect fill="#FFFFFF" height="126.8241" style="stroke:#181818;stroke-width:1.0;" width="10" x="389.5" y="240.892"/><rect fill="#FFFFFF" height="63.412" style="stroke:#181818;stroke-width:1.0;" width="10" x="389.5" y="445.1281"/><rect fill="#FFFFFF" height="422.4722" style="stroke:#181818;stroke-width:1.0;" width="10" x="859.5" y="163.4799"/><rect fill="#FFFFFF" height="69.412" style="stroke:#181818;stroke-width:1.0;" width="10" x="1219.5" y="94.0679"/><line style="stroke:#181818;stroke-width:0.5;stroke-dasharray:5.0,5.0;" x1="23" x2="23" y1="84.0679" y2="603.9521"/><line style="stroke:#181818;stroke-width:0.5;stroke-dasharray:5.0,5.0;" x1="394" x2="394" y1="84.0679" y2="603.9521"/><line style="stroke:#181818;stroke-width:0.5;stroke-dasharray:5.0,5.0;" x1="864" x2="864" y1="84.0679" y2="603.9521"/><line style="stroke:#181818;stroke-width:0.5;stroke-dasharray:5.0,5.0;" x1="1224.5" x2="1224.5" y1="84.0679" y2="603.9521"/><text fill="#000000" font-family="monospace" font-size="14" lengthAdjust="spacing" textLength="31" x="5" y="79.9659">User</text><ellipse cx="23.5" cy="13.5" fill="#E2E2F0" rx="8" ry="8" style="stroke:#181818;stroke-width:0.5;"/><path d="M23.5,21.5 L23.5,48.5 M10.5,29.5 L36.5,29.5 M23.5,48.5 L10.5,63.5 M23.5,48.5 L36.5,63.5 " fill="none" style="stroke:#181818;stroke-width:0.5;"/><text fill="#000000" font-family="monospace" font-size="14" lengthAdjust="spacing" textLength="31" x="5" y="617.9181">User</text><ellipse cx="23.5" cy="630.5201" fill="#E2E2F0" rx="8" ry="8" style="stroke:#181818;stroke-width:0.5;"/><path d="M23.5,638.5201 L23.5,665.5201 M10.5,646.5201 L36.5,646.5201 M23.5,665.5201 L10.5,680.5201 M23.5,665.5201 L36.5,680.5201 " fill="none" style="stroke:#181818;stroke-width:0.5;"/><rect fill="#E2E2F0" height="33.0679" rx="2.5" ry="2.5" style="stroke:#181818;stroke-width:0.5;" width="53" x="368" y="50"/><text fill="#000000" font-family="monospace" font-size="14" lengthAdjust="spacing" textLength="39" x="375" y="71.9659">Client</text><rect fill="#E2E2F0" height="33.0679" rx="2.5" ry="2.5" style="stroke:#181818;stroke-width:0.5;" width="53" x="368" y="602.9521"/><text fill="#000000" font-family="monospace" font-size="14" lengthAdjust="spacing" textLength="39" x="375" y="624.9181">Client</text><rect fill="#E2E2F0" height="33.0679" rx="2.5" ry="2.5" style="stroke:#181818;stroke-width:0.5;" width="57" x="836" y="50"/><text fill="#000000" font-family="monospace" font-size="14" lengthAdjust="spacing" textLength="43" x="843" y="71.9659">Server</text><rect fill="#E2E2F0" height="33.0679" rx="2.5" ry="2.5" style="stroke:#181818;stroke-width:0.5;" width="57" x="836" y="602.9521"/><text fill="#000000" font-family="monospace" font-size="14" lengthAdjust="spacing" textLength="43" x="843" y="624.9181">Server</text><text fill="#000000" font-family="monospace" font-size="14" lengthAdjust="spacing" textLength="44" x="1199.5" y="79.9659">Admin</text><ellipse cx="1224.5" cy="13.5" fill="#E2E2F0" rx="8" ry="8" style="stroke:#181818;stroke-width:0.5;"/><path d="M1224.5,21.5 L1224.5,48.5 M1211.5,29.5 L1237.5,29.5 M1224.5,48.5 L1211.5,63.5 M1224.5,48.5 L1237.5,63.5 " fill="none" style="stroke:#181818;stroke-width:0.5;"/><text fill="#000000" font-family="monospace" font-size="14" lengthAdjust="spacing" textLength="44" x="1199.5" y="617.9181">Admin</text><ellipse cx="1224.5" cy="630.5201" fill="#E2E2F0" rx="8" ry="8" style="stroke:#181818;stroke-width:0.5;"/><path d="M1224.5,638.5201 L1224.5,665.5201 M1211.5,646.5201 L1237.5,646.5201 M1224.5,665.5201 L1211.5,680.5201 M1224.5,665.5201 L1237.5,680.5201 " fill="none" style="stroke:#181818;stroke-width:0.5;"/><rect fill="#FFFFFF" height="500.8842" style="stroke:#181818;stroke-width:1.0;" width="10" x="18.5" y="94.0679"/><rect fill="#FFFFFF" height="126.8241" style="stroke:#181818;stroke-width:1.0;" width="10" x="389.5" y="240.892"/><rect fill="#FFFFFF" height="63.412" style="stroke:#181818;stroke-width:1.0;" width="10" x="389.5" y="445.1281"/><rect fill="#FFFFFF" height="422.4722" style="stroke:#181818;stroke-width:1.0;" width="10" x="859.5" y="163.4799"/><rect fill="#FFFFFF" height="69.412" style="stroke:#181818;stroke-width:1.0;" width="10" x="1219.5" y="94.0679"/><rect fill="#EEEEEE" height="3" style="stroke:#EEEEEE;stroke-width:1.0;" width="1254.5" x="0" y="115.9209"/><line style="stroke:#000000;stroke-width:1.0;" x1="0" x2="1254.5" y1="115.9209" y2="115.9209"/><line style="stroke:#000000;stroke-width:1.0;" x1="0" x2="1254.5" y1="118.9209" y2="118.9209"/><rect fill="#EEEEEE" height="25.706" style="stroke:#000000;stroke-width:2.0;" width="102" x="576.25" y="104.0679"/><text fill="#000000" font-family="monospace" font-size="13" font-weight="bold" lengthAdjust="spacing" textLength="85" x="582.25" y="121.9649">Initialization</text><polygon fill="#181818" points="880.5,159.4799,870.5,163.4799,880.5,167.4799,876.5,163.4799" style="stroke:#181818;stroke-width:1.0;"/><line style="stroke:#181818;stroke-width:1.0;" x1="874.5" x2="1223.5" y1="163.4799" y2="163.4799"/><text fill="#000000" font-family="monospace" font-size="13" lengthAdjust="spacing" textLength="331" x="886.5" y="157.6709">./server ⟨configFilePath⟩ ⟨transformationsFolderPath⟩</text><rect fill="#EEEEEE" height="3" style="stroke:#EEEEEE;stroke-width:1.0;" width="1254.5" x="0" y="193.333"/><line style="stroke:#000000;stroke-width:1.0;" x1="0" x2="1254.5" y1="193.333" y2="193.333"/><line style="stroke:#000000;stroke-width:1.0;" x1="0" x2="1254.5" y1="196.333" y2="196.333"/><rect fill="#EEEEEE" height="25.706" style="stroke:#000000;stroke-width:2.0;" width="71" x="591.75" y="181.4799"/><text fill="#000000" font-family="monospace" font-size="13" font-weight="bold" lengthAdjust="spacing" textLength="54" x="597.75" y="199.377">proc-file</text><polygon fill="#181818" points="377.5,236.892,387.5,240.892,377.5,244.892,381.5,240.892" style="stroke:#181818;stroke-width:1.0;"/><line style="stroke:#181818;stroke-width:1.0;" x1="28.5" x2="383.5" y1="240.892" y2="240.892"/><text fill="#000000" font-family="monospace" font-size="13" lengthAdjust="spacing" textLength="342" x="35.5" y="235.083">./client proc-file ⟨priority⟩ ⟨src⟩ ⟨dst⟩ ⟨transformation⟩⁺</text><polygon fill="#181818" points="847.5,268.598,857.5,272.598,847.5,276.598,851.5,272.598" style="stroke:#181818;stroke-width:1.0;"/><line style="stroke:#181818;stroke-width:1.0;" x1="399.5" x2="853.5" y1="272.598" y2="272.598"/><text fill="#000000" font-family="monospace" font-size="13" lengthAdjust="spacing" textLength="436" x="406.5" y="266.789">⟨client_pid_str⟩ ⟨PROC_FILE⟩ ⟨priority⟩ ⟨src⟩ ⟨dst⟩ ⟨num_ops⟩ ⟨ops⟩⁺</text><polygon fill="#181818" points="410.5,300.304,400.5,304.304,410.5,308.304,406.5,304.304" style="stroke:#181818;stroke-width:1.0;"/><line style="stroke:#181818;stroke-width:1.0;" x1="404.5" x2="858.5" y1="304.304" y2="304.304"/><text fill="#000000" font-family="monospace" font-size="13" lengthAdjust="spacing" textLength="50" x="416.5" y="298.495">pending</text><polygon fill="#181818" points="410.5,332.01,400.5,336.01,410.5,340.01,406.5,336.01" style="stroke:#181818;stroke-width:1.0;"/><line style="stroke:#181818;stroke-width:1.0;" x1="404.5" x2="858.5" y1="336.01" y2="336.01"/><text fill="#000000" font-family="monospace" font-size="13" lengthAdjust="spacing" textLength="65" x="416.5" y="330.201">processing</text><polygon fill="#181818" points="405.5,363.716,395.5,367.716,405.5,371.716,401.5,367.716" style="stroke:#181818;stroke-width:1.0;"/><line style="stroke:#181818;stroke-width:1.0;" x1="399.5" x2="858.5" y1="367.716" y2="367.716"/><text fill="#000000" font-family="monospace" font-size="13" lengthAdjust="spacing" textLength="215" x="411.5" y="361.907">finished + bytes read + bytes written</text><rect fill="#EEEEEE" height="3" style="stroke:#EEEEEE;stroke-width:1.0;" width="1254.5" x="0" y="397.5691"/><line style="stroke:#000000;stroke-width:1.0;" x1="0" x2="1254.5" y1="397.5691" y2="397.5691"/><line style="stroke:#000000;stroke-width:1.0;" x1="0" x2="1254.5" y1="400.5691" y2="400.5691"/><rect fill="#EEEEEE" height="25.706" style="stroke:#000000;stroke-width:2.0;" width="58" x="598.25" y="385.716"/><text fill="#000000" font-family="monospace" font-size="13" font-weight="bold" lengthAdjust="spacing" textLength="41" x="604.25" y="403.6131">status</text><polygon fill="#181818" points="377.5,441.1281,387.5,445.1281,377.5,449.1281,381.5,445.1281" style="stroke:#181818;stroke-width:1.0;"/><line style="stroke:#181818;stroke-width:1.0;" x1="28.5" x2="383.5" y1="445.1281" y2="445.1281"/><text fill="#000000" font-family="monospace" font-size="13" lengthAdjust="spacing" textLength="80" x="35.5" y="439.3191">./client status</text><polygon fill="#181818" points="847.5,472.8341,857.5,476.8341,847.5,480.8341,851.5,476.8341" style="stroke:#181818;stroke-width:1.0;"/><line style="stroke:#181818;stroke-width:1.0;" x1="399.5" x2="853.5" y1="476.8341" y2="476.8341"/><text fill="#000000" font-family="monospace" font-size="13" lengthAdjust="spacing" textLength="160" x="406.5" y="471.0251">⟨client_pid_str⟩ ⟨STATUS⟩</text><polygon fill="#181818" points="405.5,504.5401,395.5,508.5401,405.5,512.5401,401.5,508.5401" style="stroke:#181818;stroke-width:1.0;"/><line style="stroke:#181818;stroke-width:1.0;" x1="399.5" x2="858.5" y1="508.5401" y2="508.5401"/><text fill="#000000" font-family="monospace" font-size="13" lengthAdjust="spacing" textLength="109" x="411.5" y="502.7311">⟨get_status_str()⟩</text><rect fill="#EEEEEE" height="3" style="stroke:#EEEEEE;stroke-width:1.0;" width="1254.5" x="0" y="538.3931"/><line style="stroke:#000000;stroke-width:1.0;" x1="0" x2="1254.5" y1="538.3931" y2="538.3931"/><line style="stroke:#000000;stroke-width:1.0;" x1="0" x2="1254.5" y1="541.3931" y2="541.3931"/><rect fill="#EEEEEE" height="25.706" style="stroke:#000000;stroke-width:2.0;" width="100" x="577.25" y="526.5401"/><text fill="#000000" font-family="monospace" font-size="13" font-weight="bold" lengthAdjust="spacing" textLength="83" x="583.25" y="544.4371">Termination</text><polygon fill="#181818" points="875.5,581.9521,865.5,585.9521,875.5,589.9521,871.5,585.9521" style="stroke:#181818;stroke-width:1.0;"/><line style="stroke:#181818;stroke-width:1.0;" x1="869.5" x2="1001.5" y1="585.9521" y2="585.9521"/><text fill="#000000" font-family="monospace" font-size="13" lengthAdjust="spacing" textLength="114" x="881.5" y="580.1431">SIGTERM or SIGINT</text><!--MD5=[51e4a21ebd5a43bb9b024dac204c7e15]
@startuml useExample1.svg
skinparam Shadowing false
skinparam defaultFontName monospace

actor User
participant Client
participant Server
actor Admin

activate User

== Initialization ==
activate Admin
Admin -> Server: ./server ⟨configFilePath⟩ ⟨transformationsFolderPath⟩
deactivate Admin
activate Server

== proc-file ==
User -> Client: ./client proc-file ⟨priority⟩ ⟨src⟩ ⟨dst⟩ ⟨transformation⟩⁺
activate Client
Client -> Server: ⟨client_pid_str⟩ ⟨PROC_FILE⟩ ⟨priority⟩ ⟨src⟩ ⟨dst⟩ ⟨num_ops⟩ ⟨ops⟩⁺
Server -> Client: pending
Server -> Client: processing
Server -> Client: finished + bytes read + bytes written
deactivate Client

== status ==
User -> Client: ./client status
activate Client
Client -> Server: ⟨client_pid_str⟩ ⟨STATUS⟩
Server -> Client: ⟨get_status_str()⟩
deactivate Client

== Termination ==

Server <-? : SIGTERM or SIGINT
deactivate Server
@enduml

PlantUML version 1.2022.4(Sat Apr 09 14:29:17 WEST 2022)
(GPL source distribution)
Java Runtime: OpenJDK Runtime Environment
JVM: OpenJDK 64-Bit Server VM
Default Encoding: UTF-8
Language: en
Country: US
--></g></svg>