<?xml version="1.0" encoding="UTF-8" standalone="no"?>
<!DOCTYPE svg PUBLIC "-//W3C//DTD SVG 1.1//EN"
 "http://www.w3.org/Graphics/SVG/1.1/DTD/svg11.dtd">
<!-- Generated by graphviz version 3.0.0 (0)
 -->
<!-- Title: src/_server.h Pages: 1 -->
<svg width="317pt" height="84pt"
 viewBox="0.00 0.00 317.00 84.00" xmlns="http://www.w3.org/2000/svg" xmlns:xlink="http://www.w3.org/1999/xlink">
<g id="graph0" class="graph" transform="scale(1 1) rotate(0) translate(4 80)">
<title>src/_server.h</title>
<polygon fill="white" stroke="transparent" points="-4,4 -4,-80 313,-80 313,4 -4,4"/>
<!-- Node1 -->
<g id="node1" class="node">
<title>Node1</title>
<g id="a_node1"><a xlink:title=" ">
<polygon fill="#bfbfbf" stroke="black" points="101,-56.5 101,-75.5 196,-75.5 196,-56.5 101,-56.5"/>
<text text-anchor="middle" x="148.5" y="-63.5" font-family="Jetbrains Mono" font-size="10.00">src/_server.h</text>
</a>
</g>
</g>
<!-- Node2 -->
<g id="node2" class="node">
<title>Node2</title>
<g id="a_node2"><a xlink:title=" ">
<polygon fill="white" stroke="#bfbfbf" points="0,-0.5 0,-19.5 83,-19.5 83,-0.5 0,-0.5"/>
<text text-anchor="middle" x="41.5" y="-7.5" font-family="Jetbrains Mono" font-size="10.00">sys/types.h</text>
</a>
</g>
</g>
<!-- Node1&#45;&gt;Node2 -->
<g id="edge1" class="edge">
<title>Node1&#45;&gt;Node2</title>
<path fill="none" stroke="midnightblue" d="M131.31,-56.32C114.15,-47.66 87.55,-34.24 67.75,-24.25"/>
<polygon fill="midnightblue" stroke="midnightblue" points="69.15,-21.04 58.65,-19.65 66,-27.28 69.15,-21.04"/>
</g>
<!-- Node3 -->
<g id="node3" class="node">
<title>Node3</title>
<g id="a_node3"><a xlink:title=" ">
<polygon fill="white" stroke="#bfbfbf" points="101,-0.5 101,-19.5 196,-19.5 196,-0.5 101,-0.5"/>
<text text-anchor="middle" x="148.5" y="-7.5" font-family="Jetbrains Mono" font-size="10.00">util/pqueue.h</text>
</a>
</g>
</g>
<!-- Node1&#45;&gt;Node3 -->
<g id="edge2" class="edge">
<title>Node1&#45;&gt;Node3</title>
<path fill="none" stroke="midnightblue" d="M148.5,-56.08C148.5,-49.01 148.5,-38.86 148.5,-29.99"/>
<polygon fill="midnightblue" stroke="midnightblue" points="152,-29.75 148.5,-19.75 145,-29.75 152,-29.75"/>
</g>
<!-- Node4 -->
<g id="node4" class="node">
<title>Node4</title>
<g id="a_node4"><a xlink:title=" ">
<polygon fill="white" stroke="#bfbfbf" points="214,-0.5 214,-19.5 309,-19.5 309,-0.5 214,-0.5"/>
<text text-anchor="middle" x="261.5" y="-7.5" font-family="Jetbrains Mono" font-size="10.00">util/common.h</text>
</a>
</g>
</g>
<!-- Node1&#45;&gt;Node4 -->
<g id="edge3" class="edge">
<title>Node1&#45;&gt;Node4</title>
<path fill="none" stroke="midnightblue" d="M166.41,-56.44C184.75,-47.68 213.51,-33.94 234.59,-23.86"/>
<polygon fill="midnightblue" stroke="midnightblue" points="236.17,-26.99 243.68,-19.52 233.15,-20.67 236.17,-26.99"/>
</g>
</g>
</svg>
