<?xml version="1.0" encoding="UTF-8" standalone="no"?>
<!DOCTYPE svg PUBLIC "-//W3C//DTD SVG 1.1//EN"
 "http://www.w3.org/Graphics/SVG/1.1/DTD/svg11.dtd">
<!-- Generated by graphviz version 3.0.0 (0)
 -->
<!-- Title: src/client.c Pages: 1 -->
<svg width="750pt" height="84pt"
 viewBox="0.00 0.00 750.00 84.00" xmlns="http://www.w3.org/2000/svg" xmlns:xlink="http://www.w3.org/1999/xlink">
<g id="graph0" class="graph" transform="scale(1 1) rotate(0) translate(4 80)">
<title>src/client.c</title>
<polygon fill="white" stroke="transparent" points="-4,4 -4,-80 746,-80 746,4 -4,4"/>
<!-- Node1 -->
<g id="node1" class="node">
<title>Node1</title>
<g id="a_node1"><a xlink:title=" ">
<polygon fill="#bfbfbf" stroke="black" points="331,-56.5 331,-75.5 420,-75.5 420,-56.5 331,-56.5"/>
<text text-anchor="middle" x="375.5" y="-63.5" font-family="Jetbrains Mono" font-size="10.00">src/client.c</text>
</a>
</g>
</g>
<!-- Node2 -->
<g id="node2" class="node">
<title>Node2</title>
<g id="a_node2"><a xlink:title=" ">
<polygon fill="white" stroke="#bfbfbf" points="0,-0.5 0,-19.5 89,-19.5 89,-0.5 0,-0.5"/>
<text text-anchor="middle" x="44.5" y="-7.5" font-family="Jetbrains Mono" font-size="10.00">sys/unistd.h</text>
</a>
</g>
</g>
<!-- Node1&#45;&gt;Node2 -->
<g id="edge1" class="edge">
<title>Node1&#45;&gt;Node2</title>
<path fill="none" stroke="midnightblue" d="M330.7,-57.86C277.79,-49.4 186.81,-34.77 99.15,-20.26"/>
<polygon fill="midnightblue" stroke="midnightblue" points="99.47,-16.77 89.03,-18.59 98.32,-23.68 99.47,-16.77"/>
</g>
<!-- Node3 -->
<g id="node3" class="node">
<title>Node3</title>
<g id="a_node3"><a xlink:title=" ">
<polygon fill="white" stroke="#bfbfbf" points="107,-0.5 107,-19.5 190,-19.5 190,-0.5 107,-0.5"/>
<text text-anchor="middle" x="148.5" y="-7.5" font-family="Jetbrains Mono" font-size="10.00">sys/fcntl.h</text>
</a>
</g>
</g>
<!-- Node1&#45;&gt;Node3 -->
<g id="edge2" class="edge">
<title>Node1&#45;&gt;Node3</title>
<path fill="none" stroke="midnightblue" d="M339.53,-56.44C300.18,-47.08 237.01,-32.06 194.19,-21.87"/>
<polygon fill="midnightblue" stroke="midnightblue" points="194.84,-18.43 184.3,-19.52 193.22,-25.24 194.84,-18.43"/>
</g>
<!-- Node4 -->
<g id="node4" class="node">
<title>Node4</title>
<g id="a_node4"><a xlink:title=" ">
<polygon fill="white" stroke="#bfbfbf" points="208,-0.5 208,-19.5 285,-19.5 285,-0.5 208,-0.5"/>
<text text-anchor="middle" x="246.5" y="-7.5" font-family="Jetbrains Mono" font-size="10.00">sys/wait.h</text>
</a>
</g>
</g>
<!-- Node1&#45;&gt;Node4 -->
<g id="edge3" class="edge">
<title>Node1&#45;&gt;Node4</title>
<path fill="none" stroke="midnightblue" d="M355.06,-56.44C333.83,-47.56 300.4,-33.56 276.25,-23.45"/>
<polygon fill="midnightblue" stroke="midnightblue" points="277.42,-20.15 266.84,-19.52 274.72,-26.61 277.42,-20.15"/>
</g>
<!-- Node5 -->
<g id="node5" class="node">
<title>Node5</title>
<g id="a_node5"><a xlink:title=" ">
<polygon fill="white" stroke="#bfbfbf" points="303,-0.5 303,-19.5 368,-19.5 368,-0.5 303,-0.5"/>
<text text-anchor="middle" x="335.5" y="-7.5" font-family="Jetbrains Mono" font-size="10.00">stdlib.h</text>
</a>
</g>
</g>
<!-- Node1&#45;&gt;Node5 -->
<g id="edge4" class="edge">
<title>Node1&#45;&gt;Node5</title>
<path fill="none" stroke="midnightblue" d="M368.89,-56.08C363.24,-48.46 354.96,-37.26 348.05,-27.94"/>
<polygon fill="midnightblue" stroke="midnightblue" points="350.75,-25.7 341.98,-19.75 345.12,-29.87 350.75,-25.7"/>
</g>
<!-- Node6 -->
<g id="node6" class="node">
<title>Node6</title>
<g id="a_node6"><a xlink:title=" ">
<polygon fill="white" stroke="#bfbfbf" points="386,-0.5 386,-19.5 445,-19.5 445,-0.5 386,-0.5"/>
<text text-anchor="middle" x="415.5" y="-7.5" font-family="Jetbrains Mono" font-size="10.00">stdio.h</text>
</a>
</g>
</g>
<!-- Node1&#45;&gt;Node6 -->
<g id="edge5" class="edge">
<title>Node1&#45;&gt;Node6</title>
<path fill="none" stroke="midnightblue" d="M382.11,-56.08C387.76,-48.46 396.04,-37.26 402.95,-27.94"/>
<polygon fill="midnightblue" stroke="midnightblue" points="405.88,-29.87 409.02,-19.75 400.25,-25.7 405.88,-29.87"/>
</g>
<!-- Node7 -->
<g id="node7" class="node">
<title>Node7</title>
<g id="a_node7"><a xlink:title=" ">
<polygon fill="white" stroke="#bfbfbf" points="463,-0.5 463,-19.5 528,-19.5 528,-0.5 463,-0.5"/>
<text text-anchor="middle" x="495.5" y="-7.5" font-family="Jetbrains Mono" font-size="10.00">string.h</text>
</a>
</g>
</g>
<!-- Node1&#45;&gt;Node7 -->
<g id="edge6" class="edge">
<title>Node1&#45;&gt;Node7</title>
<path fill="none" stroke="midnightblue" d="M394.51,-56.44C414.09,-47.64 444.81,-33.81 467.23,-23.72"/>
<polygon fill="midnightblue" stroke="midnightblue" points="468.89,-26.81 476.57,-19.52 466.02,-20.43 468.89,-26.81"/>
</g>
<!-- Node8 -->
<g id="node8" class="node">
<title>Node8</title>
<g id="a_node8"><a xlink:title=" ">
<polygon fill="white" stroke="#bfbfbf" points="546,-0.5 546,-19.5 641,-19.5 641,-0.5 546,-0.5"/>
<text text-anchor="middle" x="593.5" y="-7.5" font-family="Jetbrains Mono" font-size="10.00">util/common.h</text>
</a>
</g>
</g>
<!-- Node1&#45;&gt;Node8 -->
<g id="edge7" class="edge">
<title>Node1&#45;&gt;Node8</title>
<path fill="none" stroke="midnightblue" d="M410.04,-56.44C447.75,-47.1 508.24,-32.12 549.36,-21.93"/>
<polygon fill="midnightblue" stroke="midnightblue" points="550.25,-25.32 559.12,-19.52 548.57,-18.52 550.25,-25.32"/>
</g>
<!-- Node9 -->
<g id="node9" class="node">
<title>Node9</title>
<g id="a_node9"><a xlink:title=" ">
<polygon fill="white" stroke="#bfbfbf" points="659,-0.5 659,-19.5 742,-19.5 742,-0.5 659,-0.5"/>
<text text-anchor="middle" x="700.5" y="-7.5" font-family="Jetbrains Mono" font-size="10.00">util/safe.h</text>
</a>
</g>
</g>
<!-- Node1&#45;&gt;Node9 -->
<g id="edge8" class="edge">
<title>Node1&#45;&gt;Node9</title>
<path fill="none" stroke="midnightblue" d="M420.31,-57.89C472.75,-49.52 562.47,-35.05 648.8,-20.27"/>
<polygon fill="midnightblue" stroke="midnightblue" points="649.5,-23.7 658.77,-18.56 648.32,-16.8 649.5,-23.7"/>
</g>
</g>
</svg>
