<?xml version="1.0" encoding="UTF-8" standalone="no"?>
<!DOCTYPE svg PUBLIC "-//W3C//DTD SVG 1.1//EN"
 "http://www.w3.org/Graphics/SVG/1.1/DTD/svg11.dtd">
<!-- Generated by graphviz version 3.0.0 (0)
 -->
<!-- Title: main Pages: 1 -->
<svg width="168pt" height="66pt"
 viewBox="0.00 0.00 168.00 66.00" xmlns="http://www.w3.org/2000/svg" xmlns:xlink="http://www.w3.org/1999/xlink">
<g id="graph0" class="graph" transform="scale(1 1) rotate(0) translate(4 62)">
<title>main</title>
<polygon fill="white" stroke="transparent" points="-4,4 -4,-62 164,-62 164,4 -4,4"/>
<!-- Node1 -->
<g id="node1" class="node">
<title>Node1</title>
<g id="a_node1"><a xlink:title=" ">
<polygon fill="#bfbfbf" stroke="black" points="0,-19.5 0,-38.5 41,-38.5 41,-19.5 0,-19.5"/>
<text text-anchor="middle" x="20.5" y="-26.5" font-family="Jetbrains Mono" font-size="10.00">main</text>
</a>
</g>
</g>
<!-- Node2 -->
<g id="node2" class="node">
<title>Node2</title>
<g id="a_node2"><a xlink:href="client_8c.html#a0163c1b682279c0ecf5bc612f622664b" target="_top" xlink:title=" ">
<polygon fill="white" stroke="black" points="86,-38.5 86,-57.5 151,-57.5 151,-38.5 86,-38.5"/>
<text text-anchor="middle" x="118.5" y="-45.5" font-family="Jetbrains Mono" font-size="10.00">delimcat</text>
</a>
</g>
</g>
<!-- Node1&#45;&gt;Node2 -->
<g id="edge1" class="edge">
<title>Node1&#45;&gt;Node2</title>
<path fill="none" stroke="midnightblue" d="M41.39,-32.94C51.43,-34.92 64,-37.41 76.02,-39.79"/>
<polygon fill="midnightblue" stroke="midnightblue" points="75.43,-43.24 85.92,-41.75 76.79,-36.37 75.43,-43.24"/>
</g>
<!-- Node3 -->
<g id="node3" class="node">
<title>Node3</title>
<g id="a_node3"><a xlink:href="client_8c.html#a30215074a82a05896a51d872abcd854e" target="_top" xlink:title=" ">
<polygon fill="white" stroke="black" points="77,-0.5 77,-19.5 160,-19.5 160,-0.5 77,-0.5"/>
<text text-anchor="middle" x="118.5" y="-7.5" font-family="Jetbrains Mono" font-size="10.00">sig_handler</text>
</a>
</g>
</g>
<!-- Node1&#45;&gt;Node3 -->
<g id="edge2" class="edge">
<title>Node1&#45;&gt;Node3</title>
<path fill="none" stroke="midnightblue" d="M41.39,-25.06C48.81,-23.59 57.62,-21.85 66.56,-20.08"/>
<polygon fill="midnightblue" stroke="midnightblue" points="67.52,-23.46 76.65,-18.08 66.16,-16.59 67.52,-23.46"/>
</g>
</g>
</svg>
