<?xml version="1.0" encoding="UTF-8" standalone="no"?><svg xmlns="http://www.w3.org/2000/svg" xmlns:xlink="http://www.w3.org/1999/xlink" contentScriptType="application/ecmascript" contentStyleType="text/css" height="818px" preserveAspectRatio="none" style="width:851px;height:818px;background:#FFFFFF;" version="1.1" viewBox="0 0 851 818" width="851px" zoomAndPan="magnify"><defs/><g><rect fill="#FFFFFF" height="627.7083" style="stroke:#A80036;stroke-width:1.0;" width="10" x="18.5" y="97.0679"/><rect fill="#FFFFFF" height="221.9421" style="stroke:#A80036;stroke-width:1.0;" width="10" x="400.5" y="243.892"/><rect fill="#FFFFFF" height="95.118" style="stroke:#A80036;stroke-width:1.0;" width="10" x="400.5" y="543.2461"/><rect fill="#FFFFFF" height="549.2963" style="stroke:#A80036;stroke-width:1.0;" width="10" x="465.5" y="166.4799"/><rect fill="#FFFFFF" height="69.412" style="stroke:#A80036;stroke-width:1.0;" width="10" x="809.5" y="97.0679"/><line style="stroke:#A80036;stroke-width:1.0;stroke-dasharray:5.0,5.0;" x1="23" x2="23" y1="87.0679" y2="733.7762"/><line style="stroke:#A80036;stroke-width:1.0;stroke-dasharray:5.0,5.0;" x1="405" x2="405" y1="87.0679" y2="733.7762"/><line style="stroke:#A80036;stroke-width:1.0;stroke-dasharray:5.0,5.0;" x1="470" x2="470" y1="87.0679" y2="733.7762"/><line style="stroke:#A80036;stroke-width:1.0;stroke-dasharray:5.0,5.0;" x1="814.5" x2="814.5" y1="87.0679" y2="733.7762"/><text fill="#000000" font-family="monospace" font-size="14" lengthAdjust="spacing" textLength="31" x="5" y="82.9659">User</text><ellipse cx="23.5" cy="15" fill="#FEFECE" rx="8" ry="8" style="stroke:#A80036;stroke-width:2.0;"/><path d="M23.5,23 L23.5,50 M10.5,31 L36.5,31 M23.5,50 L10.5,65 M23.5,50 L36.5,65 " fill="none" style="stroke:#A80036;stroke-width:2.0;"/><text fill="#000000" font-family="monospace" font-size="14" lengthAdjust="spacing" textLength="31" x="5" y="747.7421">User</text><ellipse cx="23.5" cy="761.8441" fill="#FEFECE" rx="8" ry="8" style="stroke:#A80036;stroke-width:2.0;"/><path d="M23.5,769.8441 L23.5,796.8441 M10.5,777.8441 L36.5,777.8441 M23.5,796.8441 L10.5,811.8441 M23.5,796.8441 L36.5,811.8441 " fill="none" style="stroke:#A80036;stroke-width:2.0;"/><rect fill="#FEFECE" height="33.0679" style="stroke:#A80036;stroke-width:1.5;" width="53" x="379" y="53"/><text fill="#000000" font-family="monospace" font-size="14" lengthAdjust="spacing" textLength="39" x="386" y="74.9659">Client</text><rect fill="#FEFECE" height="33.0679" style="stroke:#A80036;stroke-width:1.5;" width="53" x="379" y="732.7762"/><text fill="#000000" font-family="monospace" font-size="14" lengthAdjust="spacing" textLength="39" x="386" y="754.7421">Client</text><rect fill="#FEFECE" height="33.0679" style="stroke:#A80036;stroke-width:1.5;" width="57" x="442" y="53"/><text fill="#000000" font-family="monospace" font-size="14" lengthAdjust="spacing" textLength="43" x="449" y="74.9659">Server</text><rect fill="#FEFECE" height="33.0679" style="stroke:#A80036;stroke-width:1.5;" width="57" x="442" y="732.7762"/><text fill="#000000" font-family="monospace" font-size="14" lengthAdjust="spacing" textLength="43" x="449" y="754.7421">Server</text><text fill="#000000" font-family="monospace" font-size="14" lengthAdjust="spacing" textLength="44" x="789.5" y="82.9659">Admin</text><ellipse cx="814.5" cy="15" fill="#FEFECE" rx="8" ry="8" style="stroke:#A80036;stroke-width:2.0;"/><path d="M814.5,23 L814.5,50 M801.5,31 L827.5,31 M814.5,50 L801.5,65 M814.5,50 L827.5,65 " fill="none" style="stroke:#A80036;stroke-width:2.0;"/><text fill="#000000" font-family="monospace" font-size="14" lengthAdjust="spacing" textLength="44" x="789.5" y="747.7421">Admin</text><ellipse cx="814.5" cy="761.8441" fill="#FEFECE" rx="8" ry="8" style="stroke:#A80036;stroke-width:2.0;"/><path d="M814.5,769.8441 L814.5,796.8441 M801.5,777.8441 L827.5,777.8441 M814.5,796.8441 L801.5,811.8441 M814.5,796.8441 L827.5,811.8441 " fill="none" style="stroke:#A80036;stroke-width:2.0;"/><rect fill="#FFFFFF" height="627.7083" style="stroke:#A80036;stroke-width:1.0;" width="10" x="18.5" y="97.0679"/><rect fill="#FFFFFF" height="221.9421" style="stroke:#A80036;stroke-width:1.0;" width="10" x="400.5" y="243.892"/><rect fill="#FFFFFF" height="95.118" style="stroke:#A80036;stroke-width:1.0;" width="10" x="400.5" y="543.2461"/><rect fill="#FFFFFF" height="549.2963" style="stroke:#A80036;stroke-width:1.0;" width="10" x="465.5" y="166.4799"/><rect fill="#FFFFFF" height="69.412" style="stroke:#A80036;stroke-width:1.0;" width="10" x="809.5" y="97.0679"/><rect fill="#EEEEEE" height="3" style="stroke:#EEEEEE;stroke-width:1.0;" width="844.5" x="0" y="118.9209"/><line style="stroke:#000000;stroke-width:1.0;" x1="0" x2="844.5" y1="118.9209" y2="118.9209"/><line style="stroke:#000000;stroke-width:1.0;" x1="0" x2="844.5" y1="121.9209" y2="121.9209"/><rect fill="#EEEEEE" height="25.706" style="stroke:#000000;stroke-width:2.0;" width="102" x="371.25" y="107.0679"/><text fill="#000000" font-family="monospace" font-size="13" font-weight="bold" lengthAdjust="spacing" textLength="85" x="377.25" y="124.9649">Initialization</text><polygon fill="#A80036" points="486.5,162.4799,476.5,166.4799,486.5,170.4799,482.5,166.4799" style="stroke:#A80036;stroke-width:1.0;"/><line style="stroke:#A80036;stroke-width:1.0;" x1="480.5" x2="813.5" y1="166.4799" y2="166.4799"/><text fill="#000000" font-family="monospace" font-size="13" lengthAdjust="spacing" textLength="315" x="492.5" y="160.6709">./sdstored configFilePath transformationsFolderPath</text><rect fill="#EEEEEE" height="3" style="stroke:#EEEEEE;stroke-width:1.0;" width="844.5" x="0" y="196.333"/><line style="stroke:#000000;stroke-width:1.0;" x1="0" x2="844.5" y1="196.333" y2="196.333"/><line style="stroke:#000000;stroke-width:1.0;" x1="0" x2="844.5" y1="199.333" y2="199.333"/><rect fill="#EEEEEE" height="25.706" style="stroke:#000000;stroke-width:2.0;" width="71" x="386.75" y="184.4799"/><text fill="#000000" font-family="monospace" font-size="13" font-weight="bold" lengthAdjust="spacing" textLength="54" x="392.75" y="202.377">proc-file</text><polygon fill="#A80036" points="388.5,239.892,398.5,243.892,388.5,247.892,392.5,243.892" style="stroke:#A80036;stroke-width:1.0;"/><line style="stroke:#A80036;stroke-width:1.0;" x1="28.5" x2="394.5" y1="243.892" y2="243.892"/><text fill="#000000" font-family="monospace" font-size="13" lengthAdjust="spacing" textLength="353" x="35.5" y="238.083">./sdstore proc-file priority inPath outPath [transformations]</text><polygon fill="#A80036" points="453.5,271.598,463.5,275.598,453.5,279.598,457.5,275.598" style="stroke:#A80036;stroke-width:1.0;"/><line style="stroke:#A80036;stroke-width:1.0;" x1="410.5" x2="459.5" y1="275.598" y2="275.598"/><text fill="#000000" font-family="monospace" font-size="13" lengthAdjust="spacing" textLength="6" x="417.5" y="269.789">?</text><polygon fill="#A80036" points="421.5,303.304,411.5,307.304,421.5,311.304,417.5,307.304" style="stroke:#A80036;stroke-width:1.0;"/><line style="stroke:#A80036;stroke-width:1.0;" x1="415.5" x2="464.5" y1="307.304" y2="307.304"/><text fill="#000000" font-family="monospace" font-size="13" lengthAdjust="spacing" textLength="6" x="427.5" y="301.495">?</text><polygon fill="#A80036" points="39.5,335.01,29.5,339.01,39.5,343.01,35.5,339.01" style="stroke:#A80036;stroke-width:1.0;"/><line style="stroke:#A80036;stroke-width:1.0;" x1="33.5" x2="399.5" y1="339.01" y2="339.01"/><text fill="#000000" font-family="monospace" font-size="13" lengthAdjust="spacing" textLength="50" x="45.5" y="333.201">pending</text><polygon fill="#A80036" points="421.5,366.716,411.5,370.716,421.5,374.716,417.5,370.716" style="stroke:#A80036;stroke-width:1.0;"/><line style="stroke:#A80036;stroke-width:1.0;" x1="415.5" x2="464.5" y1="370.716" y2="370.716"/><text fill="#000000" font-family="monospace" font-size="13" lengthAdjust="spacing" textLength="6" x="427.5" y="364.907">?</text><polygon fill="#A80036" points="39.5,398.4221,29.5,402.4221,39.5,406.4221,35.5,402.4221" style="stroke:#A80036;stroke-width:1.0;"/><line style="stroke:#A80036;stroke-width:1.0;" x1="33.5" x2="399.5" y1="402.4221" y2="402.4221"/><text fill="#000000" font-family="monospace" font-size="13" lengthAdjust="spacing" textLength="65" x="45.5" y="396.6131">processing</text><polygon fill="#A80036" points="421.5,430.1281,411.5,434.1281,421.5,438.1281,417.5,434.1281" style="stroke:#A80036;stroke-width:1.0;"/><line style="stroke:#A80036;stroke-width:1.0;" x1="415.5" x2="464.5" y1="434.1281" y2="434.1281"/><text fill="#000000" font-family="monospace" font-size="13" lengthAdjust="spacing" textLength="6" x="427.5" y="428.3191">?</text><polygon fill="#A80036" points="39.5,461.8341,29.5,465.8341,39.5,469.8341,35.5,465.8341" style="stroke:#A80036;stroke-width:1.0;"/><line style="stroke:#A80036;stroke-width:1.0;" x1="33.5" x2="404.5" y1="465.8341" y2="465.8341"/><text fill="#000000" font-family="monospace" font-size="13" lengthAdjust="spacing" textLength="215" x="45.5" y="460.0251">finished + bytes read + bytes written</text><rect fill="#EEEEEE" height="3" style="stroke:#EEEEEE;stroke-width:1.0;" width="844.5" x="0" y="495.6871"/><line style="stroke:#000000;stroke-width:1.0;" x1="0" x2="844.5" y1="495.6871" y2="495.6871"/><line style="stroke:#000000;stroke-width:1.0;" x1="0" x2="844.5" y1="498.6871" y2="498.6871"/><rect fill="#EEEEEE" height="25.706" style="stroke:#000000;stroke-width:2.0;" width="58" x="393.25" y="483.8341"/><text fill="#000000" font-family="monospace" font-size="13" font-weight="bold" lengthAdjust="spacing" textLength="41" x="399.25" y="501.7311">status</text><polygon fill="#A80036" points="388.5,539.2461,398.5,543.2461,388.5,547.2461,392.5,543.2461" style="stroke:#A80036;stroke-width:1.0;"/><line style="stroke:#A80036;stroke-width:1.0;" x1="28.5" x2="394.5" y1="543.2461" y2="543.2461"/><text fill="#000000" font-family="monospace" font-size="13" lengthAdjust="spacing" textLength="93" x="35.5" y="537.4371">./sdstore status</text><polygon fill="#A80036" points="453.5,570.9521,463.5,574.9521,453.5,578.9521,457.5,574.9521" style="stroke:#A80036;stroke-width:1.0;"/><line style="stroke:#A80036;stroke-width:1.0;" x1="410.5" x2="459.5" y1="574.9521" y2="574.9521"/><text fill="#000000" font-family="monospace" font-size="13" lengthAdjust="spacing" textLength="6" x="417.5" y="569.1431">?</text><polygon fill="#A80036" points="421.5,602.6582,411.5,606.6582,421.5,610.6582,417.5,606.6582" style="stroke:#A80036;stroke-width:1.0;"/><line style="stroke:#A80036;stroke-width:1.0;" x1="415.5" x2="464.5" y1="606.6582" y2="606.6582"/><text fill="#000000" font-family="monospace" font-size="13" lengthAdjust="spacing" textLength="6" x="427.5" y="600.8492">?</text><polygon fill="#A80036" points="39.5,634.3642,29.5,638.3642,39.5,642.3642,35.5,638.3642" style="stroke:#A80036;stroke-width:1.0;"/><line style="stroke:#A80036;stroke-width:1.0;" x1="33.5" x2="404.5" y1="638.3642" y2="638.3642"/><text fill="#000000" font-family="monospace" font-size="13" lengthAdjust="spacing" textLength="141" x="45.5" y="632.5552">tasks + transformations</text><rect fill="#EEEEEE" height="3" style="stroke:#EEEEEE;stroke-width:1.0;" width="844.5" x="0" y="668.2172"/><line style="stroke:#000000;stroke-width:1.0;" x1="0" x2="844.5" y1="668.2172" y2="668.2172"/><line style="stroke:#000000;stroke-width:1.0;" x1="0" x2="844.5" y1="671.2172" y2="671.2172"/><rect fill="#EEEEEE" height="25.706" style="stroke:#000000;stroke-width:2.0;" width="100" x="372.25" y="656.3642"/><text fill="#000000" font-family="monospace" font-size="13" font-weight="bold" lengthAdjust="spacing" textLength="83" x="378.25" y="674.2612">Termination</text><polygon fill="#A80036" points="481.5,711.7762,471.5,715.7762,481.5,719.7762,477.5,715.7762" style="stroke:#A80036;stroke-width:1.0;"/><line style="stroke:#A80036;stroke-width:1.0;" x1="475.5" x2="547.5" y1="715.7762" y2="715.7762"/><text fill="#000000" font-family="monospace" font-size="13" lengthAdjust="spacing" textLength="54" x="487.5" y="709.9672">SIGTERM</text><!--MD5=[29c105707b71f17f058f3bfd230389e1]
@startuml myimage.svg
skinparam Shadowing false
skinparam defaultFontName monospace

actor User
participant Client
participant Server
actor Admin

activate User

== Initialization ==
activate Admin
Admin -> Server: ./sdstored configFilePath transformationsFolderPath
deactivate Admin
activate Server

== proc-file ==
User -> Client: ./sdstore proc-file priority inPath outPath [transformations]
activate Client
Client -> Server: ?
Server -> Client: ?
Client -> User: pending
Server -> Client: ?
Client -> User: processing
Server -> Client: ?
Client -> User: finished + bytes read + bytes written
deactivate Client

== status ==
User -> Client: ./sdstore status
activate Client
Client -> Server: ?
Server -> Client: ?
Client -> User: tasks + transformations
deactivate Client

== Termination ==

Server <-? : SIGTERM
deactivate Server
@enduml

PlantUML version 1.2021.16(Wed Dec 08 17:25:22 WET 2021)
(GPL source distribution)
Java Runtime: OpenJDK Runtime Environment
JVM: OpenJDK 64-Bit Server VM
Default Encoding: UTF-8
Language: en
Country: US
--></g></svg>