<?xml version="1.0" encoding="UTF-8" standalone="no"?>
<!DOCTYPE svg PUBLIC "-//W3C//DTD SVG 1.1//EN"
 "http://www.w3.org/Graphics/SVG/1.1/DTD/svg11.dtd">
<!-- Generated by graphviz version 3.0.0 (0)
 -->
<!-- Title: dispatchTask Pages: 1 -->
<svg width="365pt" height="66pt"
 viewBox="0.00 0.00 365.00 66.00" xmlns="http://www.w3.org/2000/svg" xmlns:xlink="http://www.w3.org/1999/xlink">
<g id="graph0" class="graph" transform="scale(1 1) rotate(0) translate(4 62)">
<title>dispatchTask</title>
<polygon fill="white" stroke="transparent" points="-4,4 -4,-62 361,-62 361,4 -4,4"/>
<!-- Node1 -->
<g id="node1" class="node">
<title>Node1</title>
<g id="a_node1"><a xlink:title=" ">
<polygon fill="#bfbfbf" stroke="black" points="0,-19.5 0,-38.5 89,-38.5 89,-19.5 0,-19.5"/>
<text text-anchor="middle" x="44.5" y="-26.5" font-family="Jetbrains Mono" font-size="10.00">dispatchTask</text>
</a>
</g>
</g>
<!-- Node2 -->
<g id="node2" class="node">
<title>Node2</title>
<g id="a_node2"><a xlink:href="server_8c.html#a9d50dc5a925886eed0db54d64f0f5643" target="_top" xlink:title=" ">
<polygon fill="white" stroke="black" points="125,-38.5 125,-57.5 280,-57.5 280,-38.5 125,-38.5"/>
<text text-anchor="middle" x="202.5" y="-45.5" font-family="Jetbrains Mono" font-size="10.00">increment_running_count</text>
</a>
</g>
</g>
<!-- Node1&#45;&gt;Node2 -->
<g id="edge1" class="edge">
<title>Node1&#45;&gt;Node2</title>
<path fill="none" stroke="midnightblue" d="M89.37,-34.34C97.42,-35.32 106.08,-36.38 114.89,-37.45"/>
<polygon fill="midnightblue" stroke="midnightblue" points="114.52,-40.93 124.87,-38.67 115.37,-33.98 114.52,-40.93"/>
</g>
<!-- Node3 -->
<g id="node3" class="node">
<title>Node3</title>
<g id="a_node3"><a xlink:href="server_8c.html#a100e1ad25ec5280f738856025759ed8a" target="_top" xlink:title=" ">
<polygon fill="white" stroke="black" points="164,-0.5 164,-19.5 241,-19.5 241,-0.5 164,-0.5"/>
<text text-anchor="middle" x="202.5" y="-7.5" font-family="Jetbrains Mono" font-size="10.00">pipe_progs</text>
</a>
</g>
</g>
<!-- Node1&#45;&gt;Node3 -->
<g id="edge2" class="edge">
<title>Node1&#45;&gt;Node3</title>
<path fill="none" stroke="midnightblue" d="M89.37,-23.66C109.41,-21.22 133.2,-18.32 153.7,-15.82"/>
<polygon fill="midnightblue" stroke="midnightblue" points="154.27,-19.28 163.78,-14.59 153.43,-12.33 154.27,-19.28"/>
</g>
<!-- Node4 -->
<g id="node4" class="node">
<title>Node4</title>
<g id="a_node4"><a xlink:href="server_8c.html#a64f211714646f225653c0c02f77acd0b" target="_top" xlink:title=" ">
<polygon fill="white" stroke="black" points="316,-0.5 316,-19.5 357,-19.5 357,-0.5 316,-0.5"/>
<text text-anchor="middle" x="336.5" y="-7.5" font-family="Jetbrains Mono" font-size="10.00">exec</text>
</a>
</g>
</g>
<!-- Node3&#45;&gt;Node4 -->
<g id="edge3" class="edge">
<title>Node3&#45;&gt;Node4</title>
<path fill="none" stroke="midnightblue" d="M241.33,-10C261.8,-10 286.73,-10 305.79,-10"/>
<polygon fill="midnightblue" stroke="midnightblue" points="305.99,-13.5 315.99,-10 305.99,-6.5 305.99,-13.5"/>
</g>
</g>
</svg>
