<?xml version="1.0" encoding="UTF-8" standalone="no"?>
<!DOCTYPE svg PUBLIC "-//W3C//DTD SVG 1.1//EN"
 "http://www.w3.org/Graphics/SVG/1.1/DTD/svg11.dtd">
<!-- Generated by graphviz version 3.0.0 (0)
 -->
<!-- Title: block_read Pages: 1 -->
<svg width="365pt" height="28pt"
 viewBox="0.00 0.00 365.00 28.00" xmlns="http://www.w3.org/2000/svg" xmlns:xlink="http://www.w3.org/1999/xlink">
<g id="graph0" class="graph" transform="scale(1 1) rotate(0) translate(4 24)">
<title>block_read</title>
<polygon fill="white" stroke="transparent" points="-4,4 -4,-24 361,-24 361,4 -4,4"/>
<!-- Node1 -->
<g id="node1" class="node">
<title>Node1</title>
<g id="a_node1"><a xlink:title=" ">
<polygon fill="#bfbfbf" stroke="black" points="0,-0.5 0,-19.5 77,-19.5 77,-0.5 0,-0.5"/>
<text text-anchor="middle" x="38.5" y="-7.5" font-family="Jetbrains Mono" font-size="10.00">block_read</text>
</a>
</g>
</g>
<!-- Node2 -->
<g id="node2" class="node">
<title>Node2</title>
<g id="a_node2"><a xlink:href="server_8c.html#ae3d717e33675b6c5f82c0407bd1e1104" target="_top" xlink:title=" ">
<polygon fill="white" stroke="black" points="113,-0.5 113,-19.5 220,-19.5 220,-0.5 113,-0.5"/>
<text text-anchor="middle" x="166.5" y="-7.5" font-family="Jetbrains Mono" font-size="10.00">process_message</text>
</a>
</g>
</g>
<!-- Node1&#45;&gt;Node2 -->
<g id="edge1" class="edge">
<title>Node1&#45;&gt;Node2</title>
<path fill="none" stroke="midnightblue" d="M77.3,-10C85.33,-10 94,-10 102.68,-10"/>
<polygon fill="midnightblue" stroke="midnightblue" points="102.81,-13.5 112.81,-10 102.81,-6.5 102.81,-13.5"/>
</g>
<!-- Node3 -->
<g id="node3" class="node">
<title>Node3</title>
<g id="a_node3"><a xlink:href="server_8c.html#aa5e044f9c499e197ed857dca61c2fbed" target="_top" xlink:title=" ">
<polygon fill="white" stroke="black" points="256,-0.5 256,-19.5 357,-19.5 357,-0.5 256,-0.5"/>
<text text-anchor="middle" x="306.5" y="-7.5" font-family="Jetbrains Mono" font-size="10.00">get_status_str</text>
</a>
</g>
</g>
<!-- Node2&#45;&gt;Node3 -->
<g id="edge2" class="edge">
<title>Node2&#45;&gt;Node3</title>
<path fill="none" stroke="midnightblue" d="M220.07,-10C228.4,-10 237.08,-10 245.58,-10"/>
<polygon fill="midnightblue" stroke="midnightblue" points="245.81,-13.5 255.81,-10 245.81,-6.5 245.81,-13.5"/>
</g>
</g>
</svg>
