<?xml version="1.0" encoding="UTF-8" standalone="no"?>
<!DOCTYPE svg PUBLIC "-//W3C//DTD SVG 1.1//EN"
 "http://www.w3.org/Graphics/SVG/1.1/DTD/svg11.dtd">
<!-- Generated by graphviz version 3.0.0 (0)
 -->
<!-- Title: main Pages: 1 -->
<svg width="825pt" height="236pt"
 viewBox="0.00 0.00 825.00 235.50" xmlns="http://www.w3.org/2000/svg" xmlns:xlink="http://www.w3.org/1999/xlink">
<g id="graph0" class="graph" transform="scale(1 1) rotate(0) translate(4 231.5)">
<title>main</title>
<polygon fill="white" stroke="transparent" points="-4,4 -4,-231.5 821,-231.5 821,4 -4,4"/>
<!-- Node1 -->
<g id="node1" class="node">
<title>Node1</title>
<g id="a_node1"><a xlink:title=" ">
<polygon fill="#bfbfbf" stroke="black" points="0,-38.5 0,-57.5 41,-57.5 41,-38.5 0,-38.5"/>
<text text-anchor="middle" x="20.5" y="-45.5" font-family="Jetbrains Mono" font-size="10.00">main</text>
</a>
</g>
</g>
<!-- Node2 -->
<g id="node2" class="node">
<title>Node2</title>
<g id="a_node2"><a xlink:href="server_8c.html#a02c1f2005b74147f6b502f0790ac668f" target="_top" xlink:title=" ">
<polygon fill="white" stroke="black" points="77,-76.5 77,-95.5 178,-95.5 178,-76.5 77,-76.5"/>
<text text-anchor="middle" x="127.5" y="-83.5" font-family="Jetbrains Mono" font-size="10.00">listening_loop</text>
</a>
</g>
</g>
<!-- Node1&#45;&gt;Node2 -->
<g id="edge1" class="edge">
<title>Node1&#45;&gt;Node2</title>
<path fill="none" stroke="midnightblue" d="M41.25,-55.15C55.02,-60.13 73.81,-66.93 90.24,-72.88"/>
<polygon fill="midnightblue" stroke="midnightblue" points="89.5,-76.33 100.1,-76.44 91.89,-69.75 89.5,-76.33"/>
</g>
<!-- Node15 -->
<g id="node15" class="node">
<title>Node15</title>
<g id="a_node15"><a xlink:href="server_8c.html#adfbfb17e1bad491fec2ba2237c045942" target="_top" xlink:title=" ">
<polygon fill="white" stroke="black" points="92,-38.5 92,-57.5 163,-57.5 163,-38.5 92,-38.5"/>
<text text-anchor="middle" x="127.5" y="-45.5" font-family="Jetbrains Mono" font-size="10.00">sig_child</text>
</a>
</g>
</g>
<!-- Node1&#45;&gt;Node15 -->
<g id="edge14" class="edge">
<title>Node1&#45;&gt;Node15</title>
<path fill="none" stroke="midnightblue" d="M41.25,-48C52.72,-48 67.67,-48 81.84,-48"/>
<polygon fill="midnightblue" stroke="midnightblue" points="81.96,-51.5 91.96,-48 81.96,-44.5 81.96,-51.5"/>
</g>
<!-- Node16 -->
<g id="node16" class="node">
<title>Node16</title>
<g id="a_node16"><a xlink:href="server_8c.html#a10a0633a37d64a974528026a0bb068f3" target="_top" xlink:title=" ">
<polygon fill="white" stroke="black" points="86,-0.5 86,-19.5 169,-19.5 169,-0.5 86,-0.5"/>
<text text-anchor="middle" x="127.5" y="-7.5" font-family="Jetbrains Mono" font-size="10.00">sig_handler</text>
</a>
</g>
</g>
<!-- Node1&#45;&gt;Node16 -->
<g id="edge15" class="edge">
<title>Node1&#45;&gt;Node16</title>
<path fill="none" stroke="midnightblue" d="M41.25,-40.85C55.02,-35.87 73.81,-29.07 90.24,-23.12"/>
<polygon fill="midnightblue" stroke="midnightblue" points="91.89,-26.25 100.1,-19.56 89.5,-19.67 91.89,-26.25"/>
</g>
<!-- Node3 -->
<g id="node3" class="node">
<title>Node3</title>
<g id="a_node3"><a xlink:href="server_8c.html#a28b9d52abca5a04f6250d15ca0b0a54a" target="_top" xlink:title=" ">
<polygon fill="white" stroke="black" points="217,-155.5 217,-174.5 324,-174.5 324,-155.5 217,-155.5"/>
<text text-anchor="middle" x="270.5" y="-162.5" font-family="Jetbrains Mono" font-size="10.00">block_read_fifo</text>
</a>
</g>
</g>
<!-- Node2&#45;&gt;Node3 -->
<g id="edge2" class="edge">
<title>Node2&#45;&gt;Node3</title>
<path fill="none" stroke="midnightblue" d="M141.01,-95.57C157.23,-107.68 186.66,-128.67 214,-143 219.84,-146.06 226.21,-148.96 232.49,-151.59"/>
<polygon fill="midnightblue" stroke="midnightblue" points="231.59,-155 242.17,-155.48 234.2,-148.51 231.59,-155"/>
</g>
<!-- Node8 -->
<g id="node8" class="node">
<title>Node8</title>
<g id="a_node8"><a xlink:href="server_8c.html#a5140edc105e02941900368035de97bc4" target="_top" xlink:title=" ">
<polygon fill="white" stroke="black" points="214,-114.5 214,-133.5 327,-133.5 327,-114.5 214,-114.5"/>
<text text-anchor="middle" x="270.5" y="-121.5" font-family="Jetbrains Mono" font-size="10.00">monitor_run_task</text>
</a>
</g>
</g>
<!-- Node2&#45;&gt;Node8 -->
<g id="edge7" class="edge">
<title>Node2&#45;&gt;Node8</title>
<path fill="none" stroke="midnightblue" d="M164.08,-95.59C182.28,-100.49 204.64,-106.52 224.07,-111.76"/>
<polygon fill="midnightblue" stroke="midnightblue" points="223.36,-115.19 233.93,-114.41 225.19,-108.43 223.36,-115.19"/>
</g>
<!-- Node12 -->
<g id="node12" class="node">
<title>Node12</title>
<g id="a_node12"><a xlink:href="server_8c.html#acfa9669af12108fe2022d8bcf78a2284" target="_top" xlink:title=" ">
<polygon fill="white" stroke="black" points="238,-76.5 238,-95.5 303,-95.5 303,-76.5 238,-76.5"/>
<text text-anchor="middle" x="270.5" y="-83.5" font-family="Jetbrains Mono" font-size="10.00">next_pos</text>
</a>
</g>
</g>
<!-- Node2&#45;&gt;Node12 -->
<g id="edge11" class="edge">
<title>Node2&#45;&gt;Node12</title>
<path fill="none" stroke="midnightblue" d="M178.21,-86C194.32,-86 212.01,-86 227.5,-86"/>
<polygon fill="midnightblue" stroke="midnightblue" points="227.82,-89.5 237.82,-86 227.82,-82.5 227.82,-89.5"/>
</g>
<!-- Node13 -->
<g id="node13" class="node">
<title>Node13</title>
<g id="a_node13"><a xlink:href="server_8c.html#a52b1686f8b94e5c077974007903b5ad2" target="_top" xlink:title=" ">
<polygon fill="white" stroke="black" points="220,-38.5 220,-57.5 321,-57.5 321,-38.5 220,-38.5"/>
<text text-anchor="middle" x="270.5" y="-45.5" font-family="Jetbrains Mono" font-size="10.00">queue_is_empty</text>
</a>
</g>
</g>
<!-- Node2&#45;&gt;Node13 -->
<g id="edge12" class="edge">
<title>Node2&#45;&gt;Node13</title>
<path fill="none" stroke="midnightblue" d="M164.08,-76.41C182.28,-71.51 204.64,-65.48 224.07,-60.24"/>
<polygon fill="midnightblue" stroke="midnightblue" points="225.19,-63.57 233.93,-57.59 223.36,-56.81 225.19,-63.57"/>
</g>
<!-- Node14 -->
<g id="node14" class="node">
<title>Node14</title>
<g id="a_node14"><a xlink:href="server_8c.html#a42f0738792d5bd6a6894829ef136a2ed" target="_top" xlink:title=" ">
<polygon fill="white" stroke="black" points="214,-0.5 214,-19.5 327,-19.5 327,-0.5 214,-0.5"/>
<text text-anchor="middle" x="270.5" y="-7.5" font-family="Jetbrains Mono" font-size="10.00">task_is_possible</text>
</a>
</g>
</g>
<!-- Node2&#45;&gt;Node14 -->
<g id="edge13" class="edge">
<title>Node2&#45;&gt;Node14</title>
<path fill="none" stroke="midnightblue" d="M159.66,-76.48C165.99,-73.89 172.41,-70.74 178,-67 197.34,-54.07 194.43,-41.58 214,-29 217.14,-26.98 220.52,-25.15 224,-23.5"/>
<polygon fill="midnightblue" stroke="midnightblue" points="225.54,-26.65 233.39,-19.52 222.81,-20.2 225.54,-26.65"/>
</g>
<!-- Node4 -->
<g id="node4" class="node">
<title>Node4</title>
<g id="a_node4"><a xlink:href="server_8c.html#ae3d717e33675b6c5f82c0407bd1e1104" target="_top" xlink:title=" ">
<polygon fill="white" stroke="black" points="414,-158.5 414,-177.5 521,-177.5 521,-158.5 414,-158.5"/>
<text text-anchor="middle" x="467.5" y="-165.5" font-family="Jetbrains Mono" font-size="10.00">process_message</text>
</a>
</g>
</g>
<!-- Node3&#45;&gt;Node4 -->
<g id="edge3" class="edge">
<title>Node3&#45;&gt;Node4</title>
<path fill="none" stroke="midnightblue" d="M324.01,-165.81C348.61,-166.19 378.1,-166.64 403.85,-167.04"/>
<polygon fill="midnightblue" stroke="midnightblue" points="403.84,-170.54 413.89,-167.19 403.95,-163.54 403.84,-170.54"/>
</g>
<!-- Node5 -->
<g id="node5" class="node">
<title>Node5</title>
<g id="a_node5"><a xlink:href="server_8c.html#aa02528b86361fdbbf110f64e33001545" target="_top" xlink:title=" ">
<polygon fill="white" stroke="black" points="608,-197 608,-227 817,-227 817,-197 608,-197"/>
<text text-anchor="start" x="616" y="-215" font-family="Jetbrains Mono" font-size="10.00">decrement_active_transformations</text>
<text text-anchor="middle" x="712.5" y="-204" font-family="Jetbrains Mono" font-size="10.00">_count</text>
</a>
</g>
</g>
<!-- Node4&#45;&gt;Node5 -->
<g id="edge4" class="edge">
<title>Node4&#45;&gt;Node5</title>
<path fill="none" stroke="midnightblue" d="M521.23,-177.55C549.56,-182.68 585.34,-189.16 618.2,-195.11"/>
<polygon fill="midnightblue" stroke="midnightblue" points="617.83,-198.6 628.3,-196.93 619.08,-191.71 617.83,-198.6"/>
</g>
<!-- Node6 -->
<g id="node6" class="node">
<title>Node6</title>
<g id="a_node6"><a xlink:href="server_8c.html#ad3affbbace1cbe98add897f17b0082fd" target="_top" xlink:title=" ">
<polygon fill="white" stroke="black" points="677,-158.5 677,-177.5 748,-177.5 748,-158.5 677,-158.5"/>
<text text-anchor="middle" x="712.5" y="-165.5" font-family="Jetbrains Mono" font-size="10.00">free_task</text>
</a>
</g>
</g>
<!-- Node4&#45;&gt;Node6 -->
<g id="edge5" class="edge">
<title>Node4&#45;&gt;Node6</title>
<path fill="none" stroke="midnightblue" d="M521.23,-168C564.63,-168 625.49,-168 666.6,-168"/>
<polygon fill="midnightblue" stroke="midnightblue" points="666.86,-171.5 676.86,-168 666.86,-164.5 666.86,-171.5"/>
</g>
<!-- Node7 -->
<g id="node7" class="node">
<title>Node7</title>
<g id="a_node7"><a xlink:href="server_8c.html#aa15f1ad63128e15e1ea0cdcb37713e70" target="_top" xlink:title=" ">
<polygon fill="white" stroke="black" points="662,-120.5 662,-139.5 763,-139.5 763,-120.5 662,-120.5"/>
<text text-anchor="middle" x="712.5" y="-127.5" font-family="Jetbrains Mono" font-size="10.00">get_status_str</text>
</a>
</g>
</g>
<!-- Node4&#45;&gt;Node7 -->
<g id="edge6" class="edge">
<title>Node4&#45;&gt;Node7</title>
<path fill="none" stroke="midnightblue" d="M521.23,-159.75C559.7,-153.74 611.9,-145.58 651.89,-139.32"/>
<polygon fill="midnightblue" stroke="midnightblue" points="652.44,-142.78 661.78,-137.78 651.36,-135.86 652.44,-142.78"/>
</g>
<!-- Node9 -->
<g id="node9" class="node">
<title>Node9</title>
<g id="a_node9"><a xlink:href="server_8c.html#aeaf7b23919439b25e645d8cc06735f86" target="_top" xlink:title=" ">
<polygon fill="white" stroke="black" points="363,-109 363,-139 572,-139 572,-109 363,-109"/>
<text text-anchor="start" x="371" y="-127" font-family="Jetbrains Mono" font-size="10.00">increment_active_transformations</text>
<text text-anchor="middle" x="467.5" y="-116" font-family="Jetbrains Mono" font-size="10.00">_count</text>
</a>
</g>
</g>
<!-- Node8&#45;&gt;Node9 -->
<g id="edge8" class="edge">
<title>Node8&#45;&gt;Node9</title>
<path fill="none" stroke="midnightblue" d="M327.12,-124C335.3,-124 343.96,-124 352.81,-124"/>
<polygon fill="midnightblue" stroke="midnightblue" points="352.86,-127.5 362.86,-124 352.86,-120.5 352.86,-127.5"/>
</g>
<!-- Node10 -->
<g id="node10" class="node">
<title>Node10</title>
<g id="a_node10"><a xlink:href="server_8c.html#a9b23d98843e86c5595cb9e8167921eda" target="_top" xlink:title=" ">
<polygon fill="white" stroke="black" points="429,-70.5 429,-89.5 506,-89.5 506,-70.5 429,-70.5"/>
<text text-anchor="middle" x="467.5" y="-77.5" font-family="Jetbrains Mono" font-size="10.00">pipe_progs</text>
</a>
</g>
</g>
<!-- Node8&#45;&gt;Node10 -->
<g id="edge9" class="edge">
<title>Node8&#45;&gt;Node10</title>
<path fill="none" stroke="midnightblue" d="M303.94,-114.41C321.36,-109.45 343.25,-103.5 363,-99 381.17,-94.86 401.28,-91 418.92,-87.86"/>
<polygon fill="midnightblue" stroke="midnightblue" points="419.73,-91.27 428.98,-86.1 418.52,-84.38 419.73,-91.27"/>
</g>
<!-- Node11 -->
<g id="node11" class="node">
<title>Node11</title>
<g id="a_node11"><a xlink:href="server_8c.html#a2e807e730ac27f236eed2cab9b086eb6" target="_top" xlink:title=" ">
<polygon fill="white" stroke="black" points="692,-70.5 692,-89.5 733,-89.5 733,-70.5 692,-70.5"/>
<text text-anchor="middle" x="712.5" y="-77.5" font-family="Jetbrains Mono" font-size="10.00">exec</text>
</a>
</g>
</g>
<!-- Node10&#45;&gt;Node11 -->
<g id="edge10" class="edge">
<title>Node10&#45;&gt;Node11</title>
<path fill="none" stroke="midnightblue" d="M506.2,-80C554.6,-80 637.59,-80 681.78,-80"/>
<polygon fill="midnightblue" stroke="midnightblue" points="681.88,-83.5 691.88,-80 681.88,-76.5 681.88,-83.5"/>
</g>
</g>
</svg>
