<?xml version="1.0" encoding="UTF-8" standalone="no"?>
<!DOCTYPE svg PUBLIC "-//W3C//DTD SVG 1.1//EN"
 "http://www.w3.org/Graphics/SVG/1.1/DTD/svg11.dtd">
<!-- Generated by graphviz version 3.0.0 (0)
 -->
<!-- Title: listening_loop Pages: 1 -->
<svg width="748pt" height="236pt"
 viewBox="0.00 0.00 748.00 235.50" xmlns="http://www.w3.org/2000/svg" xmlns:xlink="http://www.w3.org/1999/xlink">
<g id="graph0" class="graph" transform="scale(1 1) rotate(0) translate(4 231.5)">
<title>listening_loop</title>
<polygon fill="white" stroke="transparent" points="-4,4 -4,-231.5 744,-231.5 744,4 -4,4"/>
<!-- Node1 -->
<g id="node1" class="node">
<title>Node1</title>
<g id="a_node1"><a xlink:title=" ">
<polygon fill="#bfbfbf" stroke="black" points="0,-76.5 0,-95.5 101,-95.5 101,-76.5 0,-76.5"/>
<text text-anchor="middle" x="50.5" y="-83.5" font-family="Jetbrains Mono" font-size="10.00">listening_loop</text>
</a>
</g>
</g>
<!-- Node2 -->
<g id="node2" class="node">
<title>Node2</title>
<g id="a_node2"><a xlink:href="server_8c.html#a28b9d52abca5a04f6250d15ca0b0a54a" target="_top" xlink:title=" ">
<polygon fill="white" stroke="black" points="140,-155.5 140,-174.5 247,-174.5 247,-155.5 140,-155.5"/>
<text text-anchor="middle" x="193.5" y="-162.5" font-family="Jetbrains Mono" font-size="10.00">block_read_fifo</text>
</a>
</g>
</g>
<!-- Node1&#45;&gt;Node2 -->
<g id="edge1" class="edge">
<title>Node1&#45;&gt;Node2</title>
<path fill="none" stroke="midnightblue" d="M64.01,-95.57C80.23,-107.68 109.66,-128.67 137,-143 142.84,-146.06 149.21,-148.96 155.49,-151.59"/>
<polygon fill="midnightblue" stroke="midnightblue" points="154.59,-155 165.17,-155.48 157.2,-148.51 154.59,-155"/>
</g>
<!-- Node7 -->
<g id="node7" class="node">
<title>Node7</title>
<g id="a_node7"><a xlink:href="server_8c.html#a5140edc105e02941900368035de97bc4" target="_top" xlink:title=" ">
<polygon fill="white" stroke="black" points="137,-114.5 137,-133.5 250,-133.5 250,-114.5 137,-114.5"/>
<text text-anchor="middle" x="193.5" y="-121.5" font-family="Jetbrains Mono" font-size="10.00">monitor_run_task</text>
</a>
</g>
</g>
<!-- Node1&#45;&gt;Node7 -->
<g id="edge6" class="edge">
<title>Node1&#45;&gt;Node7</title>
<path fill="none" stroke="midnightblue" d="M87.08,-95.59C105.28,-100.49 127.64,-106.52 147.07,-111.76"/>
<polygon fill="midnightblue" stroke="midnightblue" points="146.36,-115.19 156.93,-114.41 148.19,-108.43 146.36,-115.19"/>
</g>
<!-- Node11 -->
<g id="node11" class="node">
<title>Node11</title>
<g id="a_node11"><a xlink:href="server_8c.html#acfa9669af12108fe2022d8bcf78a2284" target="_top" xlink:title=" ">
<polygon fill="white" stroke="black" points="161,-76.5 161,-95.5 226,-95.5 226,-76.5 161,-76.5"/>
<text text-anchor="middle" x="193.5" y="-83.5" font-family="Jetbrains Mono" font-size="10.00">next_pos</text>
</a>
</g>
</g>
<!-- Node1&#45;&gt;Node11 -->
<g id="edge10" class="edge">
<title>Node1&#45;&gt;Node11</title>
<path fill="none" stroke="midnightblue" d="M101.21,-86C117.32,-86 135.01,-86 150.5,-86"/>
<polygon fill="midnightblue" stroke="midnightblue" points="150.82,-89.5 160.82,-86 150.82,-82.5 150.82,-89.5"/>
</g>
<!-- Node12 -->
<g id="node12" class="node">
<title>Node12</title>
<g id="a_node12"><a xlink:href="server_8c.html#a52b1686f8b94e5c077974007903b5ad2" target="_top" xlink:title=" ">
<polygon fill="white" stroke="black" points="143,-38.5 143,-57.5 244,-57.5 244,-38.5 143,-38.5"/>
<text text-anchor="middle" x="193.5" y="-45.5" font-family="Jetbrains Mono" font-size="10.00">queue_is_empty</text>
</a>
</g>
</g>
<!-- Node1&#45;&gt;Node12 -->
<g id="edge11" class="edge">
<title>Node1&#45;&gt;Node12</title>
<path fill="none" stroke="midnightblue" d="M87.08,-76.41C105.28,-71.51 127.64,-65.48 147.07,-60.24"/>
<polygon fill="midnightblue" stroke="midnightblue" points="148.19,-63.57 156.93,-57.59 146.36,-56.81 148.19,-63.57"/>
</g>
<!-- Node13 -->
<g id="node13" class="node">
<title>Node13</title>
<g id="a_node13"><a xlink:href="server_8c.html#a42f0738792d5bd6a6894829ef136a2ed" target="_top" xlink:title=" ">
<polygon fill="white" stroke="black" points="137,-0.5 137,-19.5 250,-19.5 250,-0.5 137,-0.5"/>
<text text-anchor="middle" x="193.5" y="-7.5" font-family="Jetbrains Mono" font-size="10.00">task_is_possible</text>
</a>
</g>
</g>
<!-- Node1&#45;&gt;Node13 -->
<g id="edge12" class="edge">
<title>Node1&#45;&gt;Node13</title>
<path fill="none" stroke="midnightblue" d="M63.63,-76.43C79.67,-64.14 109.17,-42.75 137,-29 141.28,-26.88 145.86,-24.91 150.48,-23.08"/>
<polygon fill="midnightblue" stroke="midnightblue" points="151.78,-26.34 159.94,-19.58 149.35,-19.77 151.78,-26.34"/>
</g>
<!-- Node3 -->
<g id="node3" class="node">
<title>Node3</title>
<g id="a_node3"><a xlink:href="server_8c.html#ae3d717e33675b6c5f82c0407bd1e1104" target="_top" xlink:title=" ">
<polygon fill="white" stroke="black" points="337,-158.5 337,-177.5 444,-177.5 444,-158.5 337,-158.5"/>
<text text-anchor="middle" x="390.5" y="-165.5" font-family="Jetbrains Mono" font-size="10.00">process_message</text>
</a>
</g>
</g>
<!-- Node2&#45;&gt;Node3 -->
<g id="edge2" class="edge">
<title>Node2&#45;&gt;Node3</title>
<path fill="none" stroke="midnightblue" d="M247.01,-165.81C271.61,-166.19 301.1,-166.64 326.85,-167.04"/>
<polygon fill="midnightblue" stroke="midnightblue" points="326.84,-170.54 336.89,-167.19 326.95,-163.54 326.84,-170.54"/>
</g>
<!-- Node4 -->
<g id="node4" class="node">
<title>Node4</title>
<g id="a_node4"><a xlink:href="server_8c.html#aa02528b86361fdbbf110f64e33001545" target="_top" xlink:title=" ">
<polygon fill="white" stroke="black" points="531,-197 531,-227 740,-227 740,-197 531,-197"/>
<text text-anchor="start" x="539" y="-215" font-family="Jetbrains Mono" font-size="10.00">decrement_active_transformations</text>
<text text-anchor="middle" x="635.5" y="-204" font-family="Jetbrains Mono" font-size="10.00">_count</text>
</a>
</g>
</g>
<!-- Node3&#45;&gt;Node4 -->
<g id="edge3" class="edge">
<title>Node3&#45;&gt;Node4</title>
<path fill="none" stroke="midnightblue" d="M444.23,-177.55C472.56,-182.68 508.34,-189.16 541.2,-195.11"/>
<polygon fill="midnightblue" stroke="midnightblue" points="540.83,-198.6 551.3,-196.93 542.08,-191.71 540.83,-198.6"/>
</g>
<!-- Node5 -->
<g id="node5" class="node">
<title>Node5</title>
<g id="a_node5"><a xlink:href="server_8c.html#ad3affbbace1cbe98add897f17b0082fd" target="_top" xlink:title=" ">
<polygon fill="white" stroke="black" points="600,-158.5 600,-177.5 671,-177.5 671,-158.5 600,-158.5"/>
<text text-anchor="middle" x="635.5" y="-165.5" font-family="Jetbrains Mono" font-size="10.00">free_task</text>
</a>
</g>
</g>
<!-- Node3&#45;&gt;Node5 -->
<g id="edge4" class="edge">
<title>Node3&#45;&gt;Node5</title>
<path fill="none" stroke="midnightblue" d="M444.23,-168C487.63,-168 548.49,-168 589.6,-168"/>
<polygon fill="midnightblue" stroke="midnightblue" points="589.86,-171.5 599.86,-168 589.86,-164.5 589.86,-171.5"/>
</g>
<!-- Node6 -->
<g id="node6" class="node">
<title>Node6</title>
<g id="a_node6"><a xlink:href="server_8c.html#aa15f1ad63128e15e1ea0cdcb37713e70" target="_top" xlink:title=" ">
<polygon fill="white" stroke="black" points="585,-120.5 585,-139.5 686,-139.5 686,-120.5 585,-120.5"/>
<text text-anchor="middle" x="635.5" y="-127.5" font-family="Jetbrains Mono" font-size="10.00">get_status_str</text>
</a>
</g>
</g>
<!-- Node3&#45;&gt;Node6 -->
<g id="edge5" class="edge">
<title>Node3&#45;&gt;Node6</title>
<path fill="none" stroke="midnightblue" d="M444.23,-159.75C482.7,-153.74 534.9,-145.58 574.89,-139.32"/>
<polygon fill="midnightblue" stroke="midnightblue" points="575.44,-142.78 584.78,-137.78 574.36,-135.86 575.44,-142.78"/>
</g>
<!-- Node8 -->
<g id="node8" class="node">
<title>Node8</title>
<g id="a_node8"><a xlink:href="server_8c.html#aeaf7b23919439b25e645d8cc06735f86" target="_top" xlink:title=" ">
<polygon fill="white" stroke="black" points="286,-109 286,-139 495,-139 495,-109 286,-109"/>
<text text-anchor="start" x="294" y="-127" font-family="Jetbrains Mono" font-size="10.00">increment_active_transformations</text>
<text text-anchor="middle" x="390.5" y="-116" font-family="Jetbrains Mono" font-size="10.00">_count</text>
</a>
</g>
</g>
<!-- Node7&#45;&gt;Node8 -->
<g id="edge7" class="edge">
<title>Node7&#45;&gt;Node8</title>
<path fill="none" stroke="midnightblue" d="M250.12,-124C258.3,-124 266.96,-124 275.81,-124"/>
<polygon fill="midnightblue" stroke="midnightblue" points="275.86,-127.5 285.86,-124 275.86,-120.5 275.86,-127.5"/>
</g>
<!-- Node9 -->
<g id="node9" class="node">
<title>Node9</title>
<g id="a_node9"><a xlink:href="server_8c.html#a9b23d98843e86c5595cb9e8167921eda" target="_top" xlink:title=" ">
<polygon fill="white" stroke="black" points="352,-70.5 352,-89.5 429,-89.5 429,-70.5 352,-70.5"/>
<text text-anchor="middle" x="390.5" y="-77.5" font-family="Jetbrains Mono" font-size="10.00">pipe_progs</text>
</a>
</g>
</g>
<!-- Node7&#45;&gt;Node9 -->
<g id="edge8" class="edge">
<title>Node7&#45;&gt;Node9</title>
<path fill="none" stroke="midnightblue" d="M226.94,-114.41C244.36,-109.45 266.25,-103.5 286,-99 304.17,-94.86 324.28,-91 341.92,-87.86"/>
<polygon fill="midnightblue" stroke="midnightblue" points="342.73,-91.27 351.98,-86.1 341.52,-84.38 342.73,-91.27"/>
</g>
<!-- Node10 -->
<g id="node10" class="node">
<title>Node10</title>
<g id="a_node10"><a xlink:href="server_8c.html#a2e807e730ac27f236eed2cab9b086eb6" target="_top" xlink:title=" ">
<polygon fill="white" stroke="black" points="615,-70.5 615,-89.5 656,-89.5 656,-70.5 615,-70.5"/>
<text text-anchor="middle" x="635.5" y="-77.5" font-family="Jetbrains Mono" font-size="10.00">exec</text>
</a>
</g>
</g>
<!-- Node9&#45;&gt;Node10 -->
<g id="edge9" class="edge">
<title>Node9&#45;&gt;Node10</title>
<path fill="none" stroke="midnightblue" d="M429.2,-80C477.6,-80 560.59,-80 604.78,-80"/>
<polygon fill="midnightblue" stroke="midnightblue" points="604.88,-83.5 614.88,-80 604.88,-76.5 604.88,-83.5"/>
</g>
</g>
</svg>
