<?xml version="1.0" encoding="UTF-8" standalone="no"?>
<!DOCTYPE svg PUBLIC "-//W3C//DTD SVG 1.1//EN"
 "http://www.w3.org/Graphics/SVG/1.1/DTD/svg11.dtd">
<!-- Generated by graphviz version 3.0.0 (0)
 -->
<!-- Title: block_read_fifo Pages: 1 -->
<svg width="503pt" height="116pt"
 viewBox="0.00 0.00 503.00 115.50" xmlns="http://www.w3.org/2000/svg" xmlns:xlink="http://www.w3.org/1999/xlink">
<g id="graph0" class="graph" transform="scale(1 1) rotate(0) translate(4 111.5)">
<title>block_read_fifo</title>
<polygon fill="white" stroke="transparent" points="-4,4 -4,-111.5 499,-111.5 499,4 -4,4"/>
<!-- Node1 -->
<g id="node1" class="node">
<title>Node1</title>
<g id="a_node1"><a xlink:title=" ">
<polygon fill="#bfbfbf" stroke="black" points="0,-38.5 0,-57.5 107,-57.5 107,-38.5 0,-38.5"/>
<text text-anchor="middle" x="53.5" y="-45.5" font-family="Jetbrains Mono" font-size="10.00">block_read_fifo</text>
</a>
</g>
</g>
<!-- Node2 -->
<g id="node2" class="node">
<title>Node2</title>
<g id="a_node2"><a xlink:href="server_8c.html#ae3d717e33675b6c5f82c0407bd1e1104" target="_top" xlink:title=" ">
<polygon fill="white" stroke="black" points="143,-38.5 143,-57.5 250,-57.5 250,-38.5 143,-38.5"/>
<text text-anchor="middle" x="196.5" y="-45.5" font-family="Jetbrains Mono" font-size="10.00">process_message</text>
</a>
</g>
</g>
<!-- Node1&#45;&gt;Node2 -->
<g id="edge1" class="edge">
<title>Node1&#45;&gt;Node2</title>
<path fill="none" stroke="midnightblue" d="M107,-48C115.44,-48 124.26,-48 132.9,-48"/>
<polygon fill="midnightblue" stroke="midnightblue" points="132.95,-51.5 142.95,-48 132.95,-44.5 132.95,-51.5"/>
</g>
<!-- Node3 -->
<g id="node3" class="node">
<title>Node3</title>
<g id="a_node3"><a xlink:href="server_8c.html#aa02528b86361fdbbf110f64e33001545" target="_top" xlink:title=" ">
<polygon fill="white" stroke="black" points="286,-77 286,-107 495,-107 495,-77 286,-77"/>
<text text-anchor="start" x="294" y="-95" font-family="Jetbrains Mono" font-size="10.00">decrement_active_transformations</text>
<text text-anchor="middle" x="390.5" y="-84" font-family="Jetbrains Mono" font-size="10.00">_count</text>
</a>
</g>
</g>
<!-- Node2&#45;&gt;Node3 -->
<g id="edge2" class="edge">
<title>Node2&#45;&gt;Node3</title>
<path fill="none" stroke="midnightblue" d="M239.16,-57.55C260.97,-62.55 288.36,-68.82 313.77,-74.64"/>
<polygon fill="midnightblue" stroke="midnightblue" points="313.23,-78.11 323.76,-76.93 314.79,-71.29 313.23,-78.11"/>
</g>
<!-- Node4 -->
<g id="node4" class="node">
<title>Node4</title>
<g id="a_node4"><a xlink:href="server_8c.html#ad3affbbace1cbe98add897f17b0082fd" target="_top" xlink:title=" ">
<polygon fill="white" stroke="black" points="355,-38.5 355,-57.5 426,-57.5 426,-38.5 355,-38.5"/>
<text text-anchor="middle" x="390.5" y="-45.5" font-family="Jetbrains Mono" font-size="10.00">free_task</text>
</a>
</g>
</g>
<!-- Node2&#45;&gt;Node4 -->
<g id="edge3" class="edge">
<title>Node2&#45;&gt;Node4</title>
<path fill="none" stroke="midnightblue" d="M250.22,-48C279.88,-48 316.51,-48 344.77,-48"/>
<polygon fill="midnightblue" stroke="midnightblue" points="344.77,-51.5 354.77,-48 344.77,-44.5 344.77,-51.5"/>
</g>
<!-- Node5 -->
<g id="node5" class="node">
<title>Node5</title>
<g id="a_node5"><a xlink:href="server_8c.html#aa15f1ad63128e15e1ea0cdcb37713e70" target="_top" xlink:title=" ">
<polygon fill="white" stroke="black" points="340,-0.5 340,-19.5 441,-19.5 441,-0.5 340,-0.5"/>
<text text-anchor="middle" x="390.5" y="-7.5" font-family="Jetbrains Mono" font-size="10.00">get_status_str</text>
</a>
</g>
</g>
<!-- Node2&#45;&gt;Node5 -->
<g id="edge4" class="edge">
<title>Node2&#45;&gt;Node5</title>
<path fill="none" stroke="midnightblue" d="M240.66,-38.46C255.06,-35.35 271.2,-31.95 286,-29 300.13,-26.19 315.38,-23.3 329.71,-20.66"/>
<polygon fill="midnightblue" stroke="midnightblue" points="330.75,-24.03 339.96,-18.78 329.49,-17.14 330.75,-24.03"/>
</g>
</g>
</svg>
