<?xml version="1.0" encoding="UTF-8" standalone="no"?>
<!DOCTYPE svg PUBLIC "-//W3C//DTD SVG 1.1//EN"
 "http://www.w3.org/Graphics/SVG/1.1/DTD/svg11.dtd">
<!-- Generated by graphviz version 3.0.0 (0)
 -->
<!-- Title: decrement_active_transformations_count Pages: 1 -->
<svg width="717pt" height="39pt"
 viewBox="0.00 0.00 717.00 39.00" xmlns="http://www.w3.org/2000/svg" xmlns:xlink="http://www.w3.org/1999/xlink">
<g id="graph0" class="graph" transform="scale(1 1) rotate(0) translate(4 35)">
<title>decrement_active_transformations_count</title>
<polygon fill="white" stroke="transparent" points="-4,4 -4,-35 713,-35 713,4 -4,4"/>
<!-- Node1 -->
<g id="node1" class="node">
<title>Node1</title>
<g id="a_node1"><a xlink:title=" ">
<polygon fill="#bfbfbf" stroke="black" points="500,-0.5 500,-30.5 709,-30.5 709,-0.5 500,-0.5"/>
<text text-anchor="start" x="508" y="-18.5" font-family="Jetbrains Mono" font-size="10.00">decrement_active_transformations</text>
<text text-anchor="middle" x="604.5" y="-7.5" font-family="Jetbrains Mono" font-size="10.00">_count</text>
</a>
</g>
</g>
<!-- Node2 -->
<g id="node2" class="node">
<title>Node2</title>
<g id="a_node2"><a xlink:href="server_8c.html#ae3d717e33675b6c5f82c0407bd1e1104" target="_top" xlink:title=" ">
<polygon fill="white" stroke="black" points="357,-6 357,-25 464,-25 464,-6 357,-6"/>
<text text-anchor="middle" x="410.5" y="-13" font-family="Jetbrains Mono" font-size="10.00">process_message</text>
</a>
</g>
</g>
<!-- Node1&#45;&gt;Node2 -->
<g id="edge1" class="edge">
<title>Node1&#45;&gt;Node2</title>
<path fill="none" stroke="midnightblue" d="M489.8,-15.5C480.9,-15.5 472.22,-15.5 464.06,-15.5"/>
<polygon fill="midnightblue" stroke="midnightblue" points="489.91,-19 499.91,-15.5 489.91,-12 489.91,-19"/>
</g>
<!-- Node3 -->
<g id="node3" class="node">
<title>Node3</title>
<g id="a_node3"><a xlink:href="server_8c.html#a28b9d52abca5a04f6250d15ca0b0a54a" target="_top" xlink:title=" ">
<polygon fill="white" stroke="black" points="214,-6 214,-25 321,-25 321,-6 214,-6"/>
<text text-anchor="middle" x="267.5" y="-13" font-family="Jetbrains Mono" font-size="10.00">block_read_fifo</text>
</a>
</g>
</g>
<!-- Node2&#45;&gt;Node3 -->
<g id="edge2" class="edge">
<title>Node2&#45;&gt;Node3</title>
<path fill="none" stroke="midnightblue" d="M346.95,-15.5C338.3,-15.5 329.49,-15.5 321.05,-15.5"/>
<polygon fill="midnightblue" stroke="midnightblue" points="347,-19 357,-15.5 347,-12 347,-19"/>
</g>
<!-- Node4 -->
<g id="node4" class="node">
<title>Node4</title>
<g id="a_node4"><a xlink:href="server_8c.html#a02c1f2005b74147f6b502f0790ac668f" target="_top" xlink:title=" ">
<polygon fill="white" stroke="black" points="77,-6 77,-25 178,-25 178,-6 77,-6"/>
<text text-anchor="middle" x="127.5" y="-13" font-family="Jetbrains Mono" font-size="10.00">listening_loop</text>
</a>
</g>
</g>
<!-- Node3&#45;&gt;Node4 -->
<g id="edge3" class="edge">
<title>Node3&#45;&gt;Node4</title>
<path fill="none" stroke="midnightblue" d="M203.91,-15.5C195.29,-15.5 186.54,-15.5 178.19,-15.5"/>
<polygon fill="midnightblue" stroke="midnightblue" points="203.93,-19 213.93,-15.5 203.93,-12 203.93,-19"/>
</g>
<!-- Node5 -->
<g id="node5" class="node">
<title>Node5</title>
<g id="a_node5"><a xlink:href="server_8c.html#a1bc81224f51eef1f0cceae3d97bf9805" target="_top" xlink:title=" ">
<polygon fill="white" stroke="black" points="0,-6 0,-25 41,-25 41,-6 0,-6"/>
<text text-anchor="middle" x="20.5" y="-13" font-family="Jetbrains Mono" font-size="10.00">main</text>
</a>
</g>
</g>
<!-- Node4&#45;&gt;Node5 -->
<g id="edge4" class="edge">
<title>Node4&#45;&gt;Node5</title>
<path fill="none" stroke="midnightblue" d="M66.72,-15.5C57.53,-15.5 48.64,-15.5 41.2,-15.5"/>
<polygon fill="midnightblue" stroke="midnightblue" points="66.77,-19 76.77,-15.5 66.77,-12 66.77,-19"/>
</g>
</g>
</svg>
