<?xml version="1.0" encoding="UTF-8" standalone="no"?>
<!DOCTYPE svg PUBLIC "-//W3C//DTD SVG 1.1//EN"
 "http://www.w3.org/Graphics/SVG/1.1/DTD/svg11.dtd">
<!-- Generated by graphviz version 3.0.0 (0)
 -->
<!-- Title: process_message Pages: 1 -->
<svg width="360pt" height="116pt"
 viewBox="0.00 0.00 360.00 115.50" xmlns="http://www.w3.org/2000/svg" xmlns:xlink="http://www.w3.org/1999/xlink">
<g id="graph0" class="graph" transform="scale(1 1) rotate(0) translate(4 111.5)">
<title>process_message</title>
<polygon fill="white" stroke="transparent" points="-4,4 -4,-111.5 356,-111.5 356,4 -4,4"/>
<!-- Node1 -->
<g id="node1" class="node">
<title>Node1</title>
<g id="a_node1"><a xlink:title=" ">
<polygon fill="#bfbfbf" stroke="black" points="0,-38.5 0,-57.5 107,-57.5 107,-38.5 0,-38.5"/>
<text text-anchor="middle" x="53.5" y="-45.5" font-family="Jetbrains Mono" font-size="10.00">process_message</text>
</a>
</g>
</g>
<!-- Node2 -->
<g id="node2" class="node">
<title>Node2</title>
<g id="a_node2"><a xlink:href="server_8c.html#aa02528b86361fdbbf110f64e33001545" target="_top" xlink:title=" ">
<polygon fill="white" stroke="black" points="143,-77 143,-107 352,-107 352,-77 143,-77"/>
<text text-anchor="start" x="151" y="-95" font-family="Jetbrains Mono" font-size="10.00">decrement_active_transformations</text>
<text text-anchor="middle" x="247.5" y="-84" font-family="Jetbrains Mono" font-size="10.00">_count</text>
</a>
</g>
</g>
<!-- Node1&#45;&gt;Node2 -->
<g id="edge1" class="edge">
<title>Node1&#45;&gt;Node2</title>
<path fill="none" stroke="midnightblue" d="M96.16,-57.55C117.97,-62.55 145.36,-68.82 170.77,-74.64"/>
<polygon fill="midnightblue" stroke="midnightblue" points="170.23,-78.11 180.76,-76.93 171.79,-71.29 170.23,-78.11"/>
</g>
<!-- Node3 -->
<g id="node3" class="node">
<title>Node3</title>
<g id="a_node3"><a xlink:href="server_8c.html#ad3affbbace1cbe98add897f17b0082fd" target="_top" xlink:title=" ">
<polygon fill="white" stroke="black" points="212,-38.5 212,-57.5 283,-57.5 283,-38.5 212,-38.5"/>
<text text-anchor="middle" x="247.5" y="-45.5" font-family="Jetbrains Mono" font-size="10.00">free_task</text>
</a>
</g>
</g>
<!-- Node1&#45;&gt;Node3 -->
<g id="edge2" class="edge">
<title>Node1&#45;&gt;Node3</title>
<path fill="none" stroke="midnightblue" d="M107.22,-48C136.88,-48 173.51,-48 201.77,-48"/>
<polygon fill="midnightblue" stroke="midnightblue" points="201.77,-51.5 211.77,-48 201.77,-44.5 201.77,-51.5"/>
</g>
<!-- Node4 -->
<g id="node4" class="node">
<title>Node4</title>
<g id="a_node4"><a xlink:href="server_8c.html#aa15f1ad63128e15e1ea0cdcb37713e70" target="_top" xlink:title=" ">
<polygon fill="white" stroke="black" points="197,-0.5 197,-19.5 298,-19.5 298,-0.5 197,-0.5"/>
<text text-anchor="middle" x="247.5" y="-7.5" font-family="Jetbrains Mono" font-size="10.00">get_status_str</text>
</a>
</g>
</g>
<!-- Node1&#45;&gt;Node4 -->
<g id="edge3" class="edge">
<title>Node1&#45;&gt;Node4</title>
<path fill="none" stroke="midnightblue" d="M97.66,-38.46C112.06,-35.35 128.2,-31.95 143,-29 157.13,-26.19 172.38,-23.3 186.71,-20.66"/>
<polygon fill="midnightblue" stroke="midnightblue" points="187.75,-24.03 196.96,-18.78 186.49,-17.14 187.75,-24.03"/>
</g>
</g>
</svg>
