<?xml version="1.0" encoding="UTF-8" standalone="no"?>
<!DOCTYPE svg PUBLIC "-//W3C//DTD SVG 1.1//EN"
 "http://www.w3.org/Graphics/SVG/1.1/DTD/svg11.dtd">
<!-- Generated by graphviz version 3.0.0 (0)
 -->
<!-- Title: processQueue Pages: 1 -->
<svg width="406pt" height="66pt"
 viewBox="0.00 0.00 406.00 66.00" xmlns="http://www.w3.org/2000/svg" xmlns:xlink="http://www.w3.org/1999/xlink">
<g id="graph0" class="graph" transform="scale(1 1) rotate(0) translate(4 62)">
<title>processQueue</title>
<polygon fill="white" stroke="transparent" points="-4,4 -4,-62 402,-62 402,4 -4,4"/>
<!-- Node1 -->
<g id="node1" class="node">
<title>Node1</title>
<g id="a_node1"><a xlink:title=" ">
<polygon fill="#bfbfbf" stroke="black" points="0,-19.5 0,-38.5 89,-38.5 89,-19.5 0,-19.5"/>
<text text-anchor="middle" x="44.5" y="-26.5" font-family="Jetbrains Mono" font-size="10.00">processQueue</text>
</a>
</g>
</g>
<!-- Node2 -->
<g id="node2" class="node">
<title>Node2</title>
<g id="a_node2"><a xlink:href="server_8c.html#aba959c644a992985c9cc027c868e8b15" target="_top" xlink:title=" ">
<polygon fill="white" stroke="black" points="128,-38.5 128,-57.5 205,-57.5 205,-38.5 128,-38.5"/>
<text text-anchor="middle" x="166.5" y="-45.5" font-family="Jetbrains Mono" font-size="10.00">is_task_possible</text>
</a>
</g>
</g>
<!-- Node1&#45;&gt;Node2 -->
<g id="edge1" class="edge">
<title>Node1&#45;&gt;Node2</title>
<path fill="none" stroke="midnightblue" d="M89.16,-35.91C98.41,-37.38 108.23,-38.93 117.63,-40.42"/>
<polygon fill="midnightblue" stroke="midnightblue" points="117.19,-43.89 127.62,-42 118.29,-36.98 117.19,-43.89"/>
</g>
<!-- Node3 -->
<g id="node3" class="node">
<title>Node3</title>
<g id="a_node3"><a xlink:href="server_8c.html#ae1c6cf9dfae1a4af21a43be02328ac83" target="_top" xlink:title=" ">
<polygon fill="white" stroke="black" points="125,-0.5 125,-19.5 208,-19.5 208,-0.5 125,-0.5"/>
<text text-anchor="middle" x="166.5" y="-7.5" font-family="Jetbrains Mono" font-size="10.00">processTask</text>
</a>
</g>
</g>
<!-- Node1&#45;&gt;Node3 -->
<g id="edge2" class="edge">
<title>Node1&#45;&gt;Node3</title>
<path fill="none" stroke="midnightblue" d="M89.16,-22.09C97.54,-20.76 106.38,-19.36 114.96,-18"/>
<polygon fill="midnightblue" stroke="midnightblue" points="115.53,-21.45 124.86,-16.43 114.44,-14.54 115.53,-21.45"/>
</g>
<!-- Node4 -->
<g id="node4" class="node">
<title>Node4</title>
<g id="a_node4"><a xlink:href="server_8c.html#ab3b2e2dd53871daf333b4add1cc0d188" target="_top" xlink:title=" ">
<polygon fill="white" stroke="black" points="244,-0.5 244,-19.5 321,-19.5 321,-0.5 244,-0.5"/>
<text text-anchor="middle" x="282.5" y="-7.5" font-family="Jetbrains Mono" font-size="10.00">pipe_progs</text>
</a>
</g>
</g>
<!-- Node3&#45;&gt;Node4 -->
<g id="edge3" class="edge">
<title>Node3&#45;&gt;Node4</title>
<path fill="none" stroke="midnightblue" d="M208.01,-10C216.29,-10 225.08,-10 233.59,-10"/>
<polygon fill="midnightblue" stroke="midnightblue" points="233.78,-13.5 243.78,-10 233.78,-6.5 233.78,-13.5"/>
</g>
<!-- Node5 -->
<g id="node5" class="node">
<title>Node5</title>
<g id="a_node5"><a xlink:href="server_8c.html#a64f211714646f225653c0c02f77acd0b" target="_top" xlink:title=" ">
<polygon fill="white" stroke="black" points="357,-0.5 357,-19.5 398,-19.5 398,-0.5 357,-0.5"/>
<text text-anchor="middle" x="377.5" y="-7.5" font-family="Jetbrains Mono" font-size="10.00">exec</text>
</a>
</g>
</g>
<!-- Node4&#45;&gt;Node5 -->
<g id="edge4" class="edge">
<title>Node4&#45;&gt;Node5</title>
<path fill="none" stroke="midnightblue" d="M321.06,-10C329.61,-10 338.58,-10 346.76,-10"/>
<polygon fill="midnightblue" stroke="midnightblue" points="346.94,-13.5 356.94,-10 346.94,-6.5 346.94,-13.5"/>
</g>
</g>
</svg>
