<?xml version="1.0" encoding="UTF-8" standalone="no"?>
<!DOCTYPE svg PUBLIC "-//W3C//DTD SVG 1.1//EN"
 "http://www.w3.org/Graphics/SVG/1.1/DTD/svg11.dtd">
<!-- Generated by graphviz version 3.0.0 (0)
 -->
<!-- Title: processTask Pages: 1 -->
<svg width="281pt" height="28pt"
 viewBox="0.00 0.00 281.00 28.00" xmlns="http://www.w3.org/2000/svg" xmlns:xlink="http://www.w3.org/1999/xlink">
<g id="graph0" class="graph" transform="scale(1 1) rotate(0) translate(4 24)">
<title>processTask</title>
<polygon fill="white" stroke="transparent" points="-4,4 -4,-24 277,-24 277,4 -4,4"/>
<!-- Node1 -->
<g id="node1" class="node">
<title>Node1</title>
<g id="a_node1"><a xlink:title=" ">
<polygon fill="#bfbfbf" stroke="black" points="0,-0.5 0,-19.5 83,-19.5 83,-0.5 0,-0.5"/>
<text text-anchor="middle" x="41.5" y="-7.5" font-family="Jetbrains Mono" font-size="10.00">processTask</text>
</a>
</g>
</g>
<!-- Node2 -->
<g id="node2" class="node">
<title>Node2</title>
<g id="a_node2"><a xlink:href="server_8c.html#ab3b2e2dd53871daf333b4add1cc0d188" target="_top" xlink:title=" ">
<polygon fill="white" stroke="black" points="119,-0.5 119,-19.5 196,-19.5 196,-0.5 119,-0.5"/>
<text text-anchor="middle" x="157.5" y="-7.5" font-family="Jetbrains Mono" font-size="10.00">pipe_progs</text>
</a>
</g>
</g>
<!-- Node1&#45;&gt;Node2 -->
<g id="edge1" class="edge">
<title>Node1&#45;&gt;Node2</title>
<path fill="none" stroke="midnightblue" d="M83.01,-10C91.29,-10 100.08,-10 108.59,-10"/>
<polygon fill="midnightblue" stroke="midnightblue" points="108.78,-13.5 118.78,-10 108.78,-6.5 108.78,-13.5"/>
</g>
<!-- Node3 -->
<g id="node3" class="node">
<title>Node3</title>
<g id="a_node3"><a xlink:href="server_8c.html#a64f211714646f225653c0c02f77acd0b" target="_top" xlink:title=" ">
<polygon fill="white" stroke="black" points="232,-0.5 232,-19.5 273,-19.5 273,-0.5 232,-0.5"/>
<text text-anchor="middle" x="252.5" y="-7.5" font-family="Jetbrains Mono" font-size="10.00">exec</text>
</a>
</g>
</g>
<!-- Node2&#45;&gt;Node3 -->
<g id="edge2" class="edge">
<title>Node2&#45;&gt;Node3</title>
<path fill="none" stroke="midnightblue" d="M196.06,-10C204.61,-10 213.58,-10 221.76,-10"/>
<polygon fill="midnightblue" stroke="midnightblue" points="221.94,-13.5 231.94,-10 221.94,-6.5 221.94,-13.5"/>
</g>
</g>
</svg>
