<?xml version="1.0" encoding="UTF-8" standalone="no"?>
<!DOCTYPE svg PUBLIC "-//W3C//DTD SVG 1.1//EN"
 "http://www.w3.org/Graphics/SVG/1.1/DTD/svg11.dtd">
<!-- Generated by graphviz version 3.0.0 (0)
 -->
<!-- Title: main Pages: 1 -->
<!--zoomable 268 -->
<svg id="main" version="1.1" xmlns="http://www.w3.org/2000/svg" xmlns:xlink="http://www.w3.org/1999/xlink" xml:space="preserve" onload="init(evt)">
<style type="text/css"><![CDATA[
.edge:hover path { stroke: red; }
.edge:hover polygon { stroke: red; fill: red; }
]]></style>
<script type="text/javascript"><![CDATA[
var edges = document.getElementsByTagName('g');
if (edges && edges.length) {
  for (var i=0;i<edges.length;i++) {
    if (edges[i].id.substr(0,4)=='edge') {
      edges[i].setAttribute('class','edge');
    }
  }
}
]]></script>
        <defs>
                <circle id="rim" cx="0" cy="0" r="7"/>
                <circle id="rim2" cx="0" cy="0" r="3.5"/>
                <g id="zoomPlus">
                        <use xlink:href="#rim" fill="#404040">
                                <set attributeName="fill" to="#808080" begin="zoomplus.mouseover" end="zoomplus.mouseout"/>
                        </use>
                        <path d="M-4,0h8M0,-4v8" fill="none" stroke="white" stroke-width="1.5" pointer-events="none"/>
                </g>
                <g id="zoomMin">
                        <use xlink:href="#rim" fill="#404040">
                                <set attributeName="fill" to="#808080" begin="zoomminus.mouseover" end="zoomminus.mouseout"/>
                        </use>
                        <path d="M-4,0h8" fill="none" stroke="white" stroke-width="1.5" pointer-events="none"/>
                </g>
                <g id="dirArrow">
                        <path fill="none" stroke="white" stroke-width="1.5" d="M0,-3.0v7 M-2.5,-0.5L0,-3.0L2.5,-0.5"/>
                </g>
               <g id="resetDef">
                       <use xlink:href="#rim2" fill="#404040">
                               <set attributeName="fill" to="#808080" begin="reset.mouseover" end="reset.mouseout"/>
                       </use>
               </g>
        </defs>

<script type="text/javascript">
var viewWidth = 813;
var viewHeight = 268;
var sectionId = 'dynsection-10';
</script>
<script xlink:href="svgpan.js"/>
<svg id="graph" class="graph">
<g id="viewport">
<title>main</title>
<polygon fill="white" stroke="transparent" points="-4,4 -4,-264 809,-264 809,4 -4,4"/>
<!-- Node1 -->
<g id="node1" class="node">
<title>Node1</title>
<g id="a_node1"><a xlink:title=" ">
<polygon fill="#bfbfbf" stroke="black" points="0,-95.5 0,-114.5 41,-114.5 41,-95.5 0,-95.5"/>
<text text-anchor="middle" x="20.5" y="-102.5" font-family="Jetbrains Mono" font-size="10.00">main</text>
</a>
</g>
</g>
<!-- Node2 -->
<g id="node2" class="node">
<title>Node2</title>
<g id="a_node2"><a xlink:href="server_8c.html#a02c1f2005b74147f6b502f0790ac668f" target="_top" xlink:title=" ">
<polygon fill="white" stroke="black" points="77,-114.5 77,-133.5 178,-133.5 178,-114.5 77,-114.5"/>
<text text-anchor="middle" x="127.5" y="-121.5" font-family="Jetbrains Mono" font-size="10.00">listening_loop</text>
</a>
</g>
</g>
<!-- Node1&#45;&gt;Node2 -->
<g id="edge1" class="edge">
<title>Node1&#45;&gt;Node2</title>
<path fill="none" stroke="midnightblue" d="M41.25,-108.57C48.67,-109.92 57.53,-111.52 66.71,-113.18"/>
<polygon fill="midnightblue" stroke="midnightblue" points="66.26,-116.66 76.72,-114.99 67.5,-109.77 66.26,-116.66"/>
</g>
<!-- Node15 -->
<g id="node15" class="node">
<title>Node15</title>
<g id="a_node15"><a xlink:href="server_8c.html#a10a0633a37d64a974528026a0bb068f3" target="_top" xlink:title=" ">
<polygon fill="white" stroke="black" points="86,-76.5 86,-95.5 169,-95.5 169,-76.5 86,-76.5"/>
<text text-anchor="middle" x="127.5" y="-83.5" font-family="Jetbrains Mono" font-size="10.00">sig_handler</text>
</a>
</g>
</g>
<!-- Node1&#45;&gt;Node15 -->
<g id="edge14" class="edge">
<title>Node1&#45;&gt;Node15</title>
<path fill="none" stroke="midnightblue" d="M41.25,-101.43C51.19,-99.63 63.73,-97.36 76.12,-95.12"/>
<polygon fill="midnightblue" stroke="midnightblue" points="76.75,-98.56 85.97,-93.33 75.5,-91.67 76.75,-98.56"/>
</g>
<!-- Node3 -->
<g id="node3" class="node">
<title>Node3</title>
<g id="a_node3"><a xlink:href="server_8c.html#a8ee4175387ecbf76c3f36d421669fa1c" target="_top" xlink:title=" ">
<polygon fill="white" stroke="black" points="280,-240.5 280,-259.5 357,-259.5 357,-240.5 280,-240.5"/>
<text text-anchor="middle" x="318.5" y="-247.5" font-family="Jetbrains Mono" font-size="10.00">block_read</text>
</a>
</g>
</g>
<!-- Node2&#45;&gt;Node3 -->
<g id="edge2" class="edge">
<title>Node2&#45;&gt;Node3</title>
<path fill="none" stroke="midnightblue" d="M133.13,-133.62C143.96,-155.01 173.19,-206.59 214,-231 230.67,-240.97 251.34,-245.94 269.82,-248.34"/>
<polygon fill="midnightblue" stroke="midnightblue" points="269.5,-251.82 279.82,-249.42 270.25,-244.86 269.5,-251.82"/>
</g>
<!-- Node6 -->
<g id="node6" class="node">
<title>Node6</title>
<g id="a_node6"><a xlink:href="server_8c.html#aa02528b86361fdbbf110f64e33001545" target="_top" xlink:title=" ">
<polygon fill="white" stroke="black" points="214,-191 214,-221 423,-221 423,-191 214,-191"/>
<text text-anchor="start" x="222" y="-209" font-family="Jetbrains Mono" font-size="10.00">decrement_active_transformations</text>
<text text-anchor="middle" x="318.5" y="-198" font-family="Jetbrains Mono" font-size="10.00">_count</text>
</a>
</g>
</g>
<!-- Node2&#45;&gt;Node6 -->
<g id="edge5" class="edge">
<title>Node2&#45;&gt;Node6</title>
<path fill="none" stroke="midnightblue" d="M139.9,-133.53C155.61,-146.19 185.24,-168.41 214,-181 219.72,-183.5 225.74,-185.78 231.87,-187.85"/>
<polygon fill="midnightblue" stroke="midnightblue" points="230.99,-191.24 241.58,-190.93 233.11,-184.57 230.99,-191.24"/>
</g>
<!-- Node7 -->
<g id="node7" class="node">
<title>Node7</title>
<g id="a_node7"><a xlink:href="server_8c.html#ad3affbbace1cbe98add897f17b0082fd" target="_top" xlink:title=" ">
<polygon fill="white" stroke="black" points="283,-152.5 283,-171.5 354,-171.5 354,-152.5 283,-152.5"/>
<text text-anchor="middle" x="318.5" y="-159.5" font-family="Jetbrains Mono" font-size="10.00">free_task</text>
</a>
</g>
</g>
<!-- Node2&#45;&gt;Node7 -->
<g id="edge6" class="edge">
<title>Node2&#45;&gt;Node7</title>
<path fill="none" stroke="midnightblue" d="M170.18,-133.59C184.09,-136.7 199.69,-140.1 214,-143 233.25,-146.9 254.58,-150.88 272.85,-154.18"/>
<polygon fill="midnightblue" stroke="midnightblue" points="272.48,-157.67 282.94,-155.99 273.71,-150.78 272.48,-157.67"/>
</g>
<!-- Node8 -->
<g id="node8" class="node">
<title>Node8</title>
<g id="a_node8"><a xlink:href="server_8c.html#a5140edc105e02941900368035de97bc4" target="_top" xlink:title=" ">
<polygon fill="white" stroke="black" points="262,-114.5 262,-133.5 375,-133.5 375,-114.5 262,-114.5"/>
<text text-anchor="middle" x="318.5" y="-121.5" font-family="Jetbrains Mono" font-size="10.00">monitor_run_task</text>
</a>
</g>
</g>
<!-- Node2&#45;&gt;Node8 -->
<g id="edge7" class="edge">
<title>Node2&#45;&gt;Node8</title>
<path fill="none" stroke="midnightblue" d="M178.16,-124C200.65,-124 227.55,-124 251.69,-124"/>
<polygon fill="midnightblue" stroke="midnightblue" points="251.84,-127.5 261.84,-124 251.84,-120.5 251.84,-127.5"/>
</g>
<!-- Node12 -->
<g id="node12" class="node">
<title>Node12</title>
<g id="a_node12"><a xlink:href="server_8c.html#adbe3d551ce9221afb3203f0d4ebcb1d0" target="_top" xlink:title=" ">
<polygon fill="white" stroke="black" points="286,-76.5 286,-95.5 351,-95.5 351,-76.5 286,-76.5"/>
<text text-anchor="middle" x="318.5" y="-83.5" font-family="Jetbrains Mono" font-size="10.00">next_pos</text>
</a>
</g>
</g>
<!-- Node2&#45;&gt;Node12 -->
<g id="edge11" class="edge">
<title>Node2&#45;&gt;Node12</title>
<path fill="none" stroke="midnightblue" d="M170.18,-114.41C184.09,-111.3 199.69,-107.9 214,-105 234.24,-100.89 256.79,-96.71 275.67,-93.32"/>
<polygon fill="midnightblue" stroke="midnightblue" points="276.5,-96.72 285.73,-91.52 275.27,-89.83 276.5,-96.72"/>
</g>
<!-- Node13 -->
<g id="node13" class="node">
<title>Node13</title>
<g id="a_node13"><a xlink:href="server_8c.html#a52b1686f8b94e5c077974007903b5ad2" target="_top" xlink:title=" ">
<polygon fill="white" stroke="black" points="268,-38.5 268,-57.5 369,-57.5 369,-38.5 268,-38.5"/>
<text text-anchor="middle" x="318.5" y="-45.5" font-family="Jetbrains Mono" font-size="10.00">queue_is_empty</text>
</a>
</g>
</g>
<!-- Node2&#45;&gt;Node13 -->
<g id="edge12" class="edge">
<title>Node2&#45;&gt;Node13</title>
<path fill="none" stroke="midnightblue" d="M159.66,-114.48C165.99,-111.89 172.41,-108.74 178,-105 197.34,-92.07 193.55,-78.09 214,-67 227.31,-59.78 242.85,-55.25 257.78,-52.41"/>
<polygon fill="midnightblue" stroke="midnightblue" points="258.69,-55.81 267.98,-50.71 257.54,-48.9 258.69,-55.81"/>
</g>
<!-- Node14 -->
<g id="node14" class="node">
<title>Node14</title>
<g id="a_node14"><a xlink:href="server_8c.html#a42f0738792d5bd6a6894829ef136a2ed" target="_top" xlink:title=" ">
<polygon fill="white" stroke="black" points="262,-0.5 262,-19.5 375,-19.5 375,-0.5 262,-0.5"/>
<text text-anchor="middle" x="318.5" y="-7.5" font-family="Jetbrains Mono" font-size="10.00">task_is_possible</text>
</a>
</g>
</g>
<!-- Node2&#45;&gt;Node14 -->
<g id="edge13" class="edge">
<title>Node2&#45;&gt;Node14</title>
<path fill="none" stroke="midnightblue" d="M163.48,-114.49C168.75,-111.99 173.81,-108.88 178,-105 205.41,-79.59 184.36,-51.77 214,-29 224.96,-20.58 238.48,-15.48 252.09,-12.47"/>
<polygon fill="midnightblue" stroke="midnightblue" points="252.79,-15.9 261.98,-10.63 251.51,-9.02 252.79,-15.9"/>
</g>
<!-- Node4 -->
<g id="node4" class="node">
<title>Node4</title>
<g id="a_node4"><a xlink:href="server_8c.html#ae3d717e33675b6c5f82c0407bd1e1104" target="_top" xlink:title=" ">
<polygon fill="white" stroke="black" points="510,-240.5 510,-259.5 617,-259.5 617,-240.5 510,-240.5"/>
<text text-anchor="middle" x="563.5" y="-247.5" font-family="Jetbrains Mono" font-size="10.00">process_message</text>
</a>
</g>
</g>
<!-- Node3&#45;&gt;Node4 -->
<g id="edge3" class="edge">
<title>Node3&#45;&gt;Node4</title>
<path fill="none" stroke="midnightblue" d="M357.2,-250C395.17,-250 454.43,-250 499.54,-250"/>
<polygon fill="midnightblue" stroke="midnightblue" points="499.8,-253.5 509.8,-250 499.8,-246.5 499.8,-253.5"/>
</g>
<!-- Node5 -->
<g id="node5" class="node">
<title>Node5</title>
<g id="a_node5"><a xlink:href="server_8c.html#aa5e044f9c499e197ed857dca61c2fbed" target="_top" xlink:title=" ">
<polygon fill="white" stroke="black" points="704,-240.5 704,-259.5 805,-259.5 805,-240.5 704,-240.5"/>
<text text-anchor="middle" x="754.5" y="-247.5" font-family="Jetbrains Mono" font-size="10.00">get_status_str</text>
</a>
</g>
</g>
<!-- Node4&#45;&gt;Node5 -->
<g id="edge4" class="edge">
<title>Node4&#45;&gt;Node5</title>
<path fill="none" stroke="midnightblue" d="M617.15,-250C640.85,-250 668.95,-250 693.47,-250"/>
<polygon fill="midnightblue" stroke="midnightblue" points="693.73,-253.5 703.73,-250 693.73,-246.5 693.73,-253.5"/>
</g>
<!-- Node9 -->
<g id="node9" class="node">
<title>Node9</title>
<g id="a_node9"><a xlink:href="server_8c.html#aeaf7b23919439b25e645d8cc06735f86" target="_top" xlink:title=" ">
<polygon fill="white" stroke="black" points="459,-131 459,-161 668,-161 668,-131 459,-131"/>
<text text-anchor="start" x="467" y="-149" font-family="Jetbrains Mono" font-size="10.00">increment_active_transformations</text>
<text text-anchor="middle" x="563.5" y="-138" font-family="Jetbrains Mono" font-size="10.00">_count</text>
</a>
</g>
</g>
<!-- Node8&#45;&gt;Node9 -->
<g id="edge8" class="edge">
<title>Node8&#45;&gt;Node9</title>
<path fill="none" stroke="midnightblue" d="M375.25,-129.05C397.14,-131.03 423.12,-133.38 448.64,-135.69"/>
<polygon fill="midnightblue" stroke="midnightblue" points="448.49,-139.19 458.76,-136.61 449.12,-132.22 448.49,-139.19"/>
</g>
<!-- Node10 -->
<g id="node10" class="node">
<title>Node10</title>
<g id="a_node10"><a xlink:href="server_8c.html#a9b23d98843e86c5595cb9e8167921eda" target="_top" xlink:title=" ">
<polygon fill="white" stroke="black" points="525,-92.5 525,-111.5 602,-111.5 602,-92.5 525,-92.5"/>
<text text-anchor="middle" x="563.5" y="-99.5" font-family="Jetbrains Mono" font-size="10.00">pipe_progs</text>
</a>
</g>
</g>
<!-- Node8&#45;&gt;Node10 -->
<g id="edge9" class="edge">
<title>Node8&#45;&gt;Node10</title>
<path fill="none" stroke="midnightblue" d="M375.25,-118.95C417.4,-115.14 474.66,-109.95 514.72,-106.33"/>
<polygon fill="midnightblue" stroke="midnightblue" points="515.13,-109.8 524.77,-105.42 514.5,-102.83 515.13,-109.8"/>
</g>
<!-- Node11 -->
<g id="node11" class="node">
<title>Node11</title>
<g id="a_node11"><a xlink:href="server_8c.html#a2e807e730ac27f236eed2cab9b086eb6" target="_top" xlink:title=" ">
<polygon fill="white" stroke="black" points="734,-92.5 734,-111.5 775,-111.5 775,-92.5 734,-92.5"/>
<text text-anchor="middle" x="754.5" y="-99.5" font-family="Jetbrains Mono" font-size="10.00">exec</text>
</a>
</g>
</g>
<!-- Node10&#45;&gt;Node11 -->
<g id="edge10" class="edge">
<title>Node10&#45;&gt;Node11</title>
<path fill="none" stroke="midnightblue" d="M602.29,-102C637.91,-102 690.58,-102 723.43,-102"/>
<polygon fill="midnightblue" stroke="midnightblue" points="723.75,-105.5 733.75,-102 723.75,-98.5 723.75,-105.5"/>
</g>
</g>
</svg>
        <g id="navigator" transform="translate(0 0)" fill="#404254">
                <rect fill="#f2f5e9" fill-opacity="0.5" stroke="#606060" stroke-width=".5" x="0" y="0" width="60" height="60"/>
                <use id="zoomplus" xlink:href="#zoomPlus" x="17" y="9" onmousedown="handleZoom(evt,'in')"/>
                <use id="zoomminus" xlink:href="#zoomMin" x="42" y="9" onmousedown="handleZoom(evt,'out')"/>
                <use id="reset" xlink:href="#resetDef" x="30" y="36" onmousedown="handleReset()"/>
                <g id="arrowUp" xlink:href="#dirArrow" transform="translate(30 24)" onmousedown="handlePan(0,-1)">
                  <use xlink:href="#rim" fill="#404040">
                        <set attributeName="fill" to="#808080" begin="arrowUp.mouseover" end="arrowUp.mouseout"/>
                  </use>
                  <path fill="none" stroke="white" stroke-width="1.5" d="M0,-3.0v7 M-2.5,-0.5L0,-3.0L2.5,-0.5"/>
                </g>
                <g id="arrowRight" xlink:href="#dirArrow" transform="rotate(90) translate(36 -43)" onmousedown="handlePan(1,0)">
                  <use xlink:href="#rim" fill="#404040">
                        <set attributeName="fill" to="#808080" begin="arrowRight.mouseover" end="arrowRight.mouseout"/>
                  </use>
                  <path fill="none" stroke="white" stroke-width="1.5" d="M0,-3.0v7 M-2.5,-0.5L0,-3.0L2.5,-0.5"/>
                </g>
                <g id="arrowDown" xlink:href="#dirArrow" transform="rotate(180) translate(-30 -48)" onmousedown="handlePan(0,1)">
                  <use xlink:href="#rim" fill="#404040">
                        <set attributeName="fill" to="#808080" begin="arrowDown.mouseover" end="arrowDown.mouseout"/>
                  </use>
                  <path fill="none" stroke="white" stroke-width="1.5" d="M0,-3.0v7 M-2.5,-0.5L0,-3.0L2.5,-0.5"/>
                </g>
                <g id="arrowLeft" xlink:href="#dirArrow" transform="rotate(270) translate(-36 17)" onmousedown="handlePan(-1,0)">
                  <use xlink:href="#rim" fill="#404040">
                        <set attributeName="fill" to="#808080" begin="arrowLeft.mouseover" end="arrowLeft.mouseout"/>
                  </use>
                  <path fill="none" stroke="white" stroke-width="1.5" d="M0,-3.0v7 M-2.5,-0.5L0,-3.0L2.5,-0.5"/>
                </g>
        </g>
        <svg viewBox="0 0 15 15" width="100%" height="30px" preserveAspectRatio="xMaxYMin meet">
         <g id="arrow_out" transform="scale(0.3 0.3)">
          <a xlink:href="server_8c_a0ddf1224851353fc92bfbff6f499fa97_cgraph_org.svg" target="_base">
           <rect id="button" ry="5" rx="5" y="6" x="6" height="38" width="38"
                fill="#f2f5e9" fill-opacity="0.5" stroke="#606060" stroke-width="1.0"/>
           <path id="arrow"
             d="M 11.500037,31.436501 C 11.940474,20.09759 22.043105,11.32322 32.158766,21.979434 L 37.068811,17.246167 C 37.068811,17.246167 37.088388,32 37.088388,32 L 22.160133,31.978069 C 22.160133,31.978069 26.997745,27.140456 26.997745,27.140456 C 18.528582,18.264221 13.291696,25.230495 11.500037,31.436501 z"
             style="fill:#404040;"/>
          </a>
         </g>
        </svg>
</svg>
