<?xml version="1.0" encoding="UTF-8" standalone="no"?>
<!DOCTYPE svg PUBLIC "-//W3C//DTD SVG 1.1//EN"
 "http://www.w3.org/Graphics/SVG/1.1/DTD/svg11.dtd">
<!-- Generated by graphviz version 3.0.0 (0)
 -->
<!-- Title: monitor_run_task Pages: 1 -->
<svg width="443pt" height="78pt"
 viewBox="0.00 0.00 443.00 77.50" xmlns="http://www.w3.org/2000/svg" xmlns:xlink="http://www.w3.org/1999/xlink">
<g id="graph0" class="graph" transform="scale(1 1) rotate(0) translate(4 73.5)">
<title>monitor_run_task</title>
<polygon fill="white" stroke="transparent" points="-4,4 -4,-73.5 439,-73.5 439,4 -4,4"/>
<!-- Node1 -->
<g id="node1" class="node">
<title>Node1</title>
<g id="a_node1"><a xlink:title=" ">
<polygon fill="#bfbfbf" stroke="black" points="0,-22.5 0,-41.5 113,-41.5 113,-22.5 0,-22.5"/>
<text text-anchor="middle" x="56.5" y="-29.5" font-family="Jetbrains Mono" font-size="10.00">monitor_run_task</text>
</a>
</g>
</g>
<!-- Node2 -->
<g id="node2" class="node">
<title>Node2</title>
<g id="a_node2"><a xlink:href="server_8c.html#aeaf7b23919439b25e645d8cc06735f86" target="_top" xlink:title=" ">
<polygon fill="white" stroke="black" points="149,-39 149,-69 358,-69 358,-39 149,-39"/>
<text text-anchor="start" x="157" y="-57" font-family="Jetbrains Mono" font-size="10.00">increment_active_transformations</text>
<text text-anchor="middle" x="253.5" y="-46" font-family="Jetbrains Mono" font-size="10.00">_count</text>
</a>
</g>
</g>
<!-- Node1&#45;&gt;Node2 -->
<g id="edge1" class="edge">
<title>Node1&#45;&gt;Node2</title>
<path fill="none" stroke="midnightblue" d="M113.12,-38.27C121.3,-39.2 129.96,-40.18 138.81,-41.17"/>
<polygon fill="midnightblue" stroke="midnightblue" points="138.53,-44.66 148.86,-42.31 139.32,-37.71 138.53,-44.66"/>
</g>
<!-- Node3 -->
<g id="node3" class="node">
<title>Node3</title>
<g id="a_node3"><a xlink:href="server_8c.html#a9b23d98843e86c5595cb9e8167921eda" target="_top" xlink:title=" ">
<polygon fill="white" stroke="black" points="215,-0.5 215,-19.5 292,-19.5 292,-0.5 215,-0.5"/>
<text text-anchor="middle" x="253.5" y="-7.5" font-family="Jetbrains Mono" font-size="10.00">pipe_progs</text>
</a>
</g>
</g>
<!-- Node1&#45;&gt;Node3 -->
<g id="edge2" class="edge">
<title>Node1&#45;&gt;Node3</title>
<path fill="none" stroke="midnightblue" d="M113.12,-25.73C141.97,-22.47 176.85,-18.53 204.51,-15.41"/>
<polygon fill="midnightblue" stroke="midnightblue" points="205.18,-18.86 214.72,-14.26 204.4,-11.91 205.18,-18.86"/>
</g>
<!-- Node4 -->
<g id="node4" class="node">
<title>Node4</title>
<g id="a_node4"><a xlink:href="server_8c.html#a2e807e730ac27f236eed2cab9b086eb6" target="_top" xlink:title=" ">
<polygon fill="white" stroke="black" points="394,-0.5 394,-19.5 435,-19.5 435,-0.5 394,-0.5"/>
<text text-anchor="middle" x="414.5" y="-7.5" font-family="Jetbrains Mono" font-size="10.00">exec</text>
</a>
</g>
</g>
<!-- Node3&#45;&gt;Node4 -->
<g id="edge3" class="edge">
<title>Node3&#45;&gt;Node4</title>
<path fill="none" stroke="midnightblue" d="M292.18,-10C320.14,-10 357.76,-10 383.65,-10"/>
<polygon fill="midnightblue" stroke="midnightblue" points="383.97,-13.5 393.97,-10 383.97,-6.5 383.97,-13.5"/>
</g>
</g>
</svg>
