<?xml version="1.0" encoding="UTF-8" standalone="no"?>
<!DOCTYPE svg PUBLIC "-//W3C//DTD SVG 1.1//EN"
 "http://www.w3.org/Graphics/SVG/1.1/DTD/svg11.dtd">
<!-- Generated by graphviz version 3.0.0 (0)
 -->
<!-- Title: process_message Pages: 1 -->
<svg width="252pt" height="66pt"
 viewBox="0.00 0.00 252.00 66.00" xmlns="http://www.w3.org/2000/svg" xmlns:xlink="http://www.w3.org/1999/xlink">
<g id="graph0" class="graph" transform="scale(1 1) rotate(0) translate(4 62)">
<title>process_message</title>
<polygon fill="white" stroke="transparent" points="-4,4 -4,-62 248,-62 248,4 -4,4"/>
<!-- Node1 -->
<g id="node1" class="node">
<title>Node1</title>
<g id="a_node1"><a xlink:title=" ">
<polygon fill="#bfbfbf" stroke="black" points="0,-19.5 0,-38.5 107,-38.5 107,-19.5 0,-19.5"/>
<text text-anchor="middle" x="53.5" y="-26.5" font-family="Jetbrains Mono" font-size="10.00">process_message</text>
</a>
</g>
</g>
<!-- Node2 -->
<g id="node2" class="node">
<title>Node2</title>
<g id="a_node2"><a xlink:href="server_8c.html#aa5e044f9c499e197ed857dca61c2fbed" target="_top" xlink:title=" ">
<polygon fill="white" stroke="black" points="143,-38.5 143,-57.5 244,-57.5 244,-38.5 143,-38.5"/>
<text text-anchor="middle" x="193.5" y="-45.5" font-family="Jetbrains Mono" font-size="10.00">get_status_str</text>
</a>
</g>
</g>
<!-- Node1&#45;&gt;Node2 -->
<g id="edge1" class="edge">
<title>Node1&#45;&gt;Node2</title>
<path fill="none" stroke="midnightblue" d="M107.07,-36.24C115.5,-37.4 124.28,-38.61 132.86,-39.79"/>
<polygon fill="midnightblue" stroke="midnightblue" points="132.42,-43.26 142.81,-41.16 133.38,-36.33 132.42,-43.26"/>
</g>
<!-- Node3 -->
<g id="node3" class="node">
<title>Node3</title>
<g id="a_node3"><a xlink:href="server_8c.html#ac4aa6fdefac7b186caf0cd2783636eaa" target="_top" xlink:title=" ">
<polygon fill="white" stroke="black" points="161,-0.5 161,-19.5 226,-19.5 226,-0.5 161,-0.5"/>
<text text-anchor="middle" x="193.5" y="-7.5" font-family="Jetbrains Mono" font-size="10.00">get_task</text>
</a>
</g>
</g>
<!-- Node1&#45;&gt;Node3 -->
<g id="edge2" class="edge">
<title>Node1&#45;&gt;Node3</title>
<path fill="none" stroke="midnightblue" d="M107.07,-21.76C121.51,-19.77 136.98,-17.64 150.73,-15.75"/>
<polygon fill="midnightblue" stroke="midnightblue" points="151.43,-19.19 160.86,-14.36 150.48,-12.25 151.43,-19.19"/>
</g>
</g>
</svg>
