<?xml version="1.0" encoding="UTF-8" standalone="no"?>
<!DOCTYPE svg PUBLIC "-//W3C//DTD SVG 1.1//EN"
 "http://www.w3.org/Graphics/SVG/1.1/DTD/svg11.dtd">
<!-- Generated by graphviz version 3.0.0 (0)
 -->
<!-- Title: src/server.c Pages: 1 -->
<svg width="1101pt" height="140pt"
 viewBox="0.00 0.00 1100.71 140.00" xmlns="http://www.w3.org/2000/svg" xmlns:xlink="http://www.w3.org/1999/xlink">
<g id="graph0" class="graph" transform="scale(1 1) rotate(0) translate(4 136)">
<title>src/server.c</title>
<polygon fill="white" stroke="transparent" points="-4,4 -4,-136 1096.71,-136 1096.71,4 -4,4"/>
<!-- Node1 -->
<g id="node1" class="node">
<title>Node1</title>
<g id="a_node1"><a xlink:title=" ">
<polygon fill="#bfbfbf" stroke="black" points="546,-112.5 546,-131.5 635,-131.5 635,-112.5 546,-112.5"/>
<text text-anchor="middle" x="590.5" y="-119.5" font-family="Jetbrains Mono" font-size="10.00">src/server.c</text>
</a>
</g>
</g>
<!-- Node2 -->
<g id="node2" class="node">
<title>Node2</title>
<g id="a_node2"><a xlink:title=" ">
<polygon fill="white" stroke="#bfbfbf" points="0,-56.5 0,-75.5 83,-75.5 83,-56.5 0,-56.5"/>
<text text-anchor="middle" x="41.5" y="-63.5" font-family="Jetbrains Mono" font-size="10.00">sys/fcntl.h</text>
</a>
</g>
</g>
<!-- Node1&#45;&gt;Node2 -->
<g id="edge1" class="edge">
<title>Node1&#45;&gt;Node2</title>
<path fill="none" stroke="midnightblue" d="M545.96,-118.31C460.22,-112.83 266.1,-99.06 93.24,-76.13"/>
<polygon fill="midnightblue" stroke="midnightblue" points="93.57,-72.65 83.2,-74.79 92.65,-79.59 93.57,-72.65"/>
</g>
<!-- Node3 -->
<g id="node3" class="node">
<title>Node3</title>
<g id="a_node3"><a xlink:title=" ">
<polygon fill="white" stroke="#bfbfbf" points="101,-56.5 101,-75.5 190,-75.5 190,-56.5 101,-56.5"/>
<text text-anchor="middle" x="145.5" y="-63.5" font-family="Jetbrains Mono" font-size="10.00">sys/unistd.h</text>
</a>
</g>
</g>
<!-- Node1&#45;&gt;Node3 -->
<g id="edge2" class="edge">
<title>Node1&#45;&gt;Node3</title>
<path fill="none" stroke="midnightblue" d="M545.72,-116.65C474.66,-109.58 331.48,-94.63 200.24,-76.18"/>
<polygon fill="midnightblue" stroke="midnightblue" points="200.4,-72.67 190.01,-74.74 199.42,-79.6 200.4,-72.67"/>
</g>
<!-- Node4 -->
<g id="node4" class="node">
<title>Node4</title>
<g id="a_node4"><a xlink:title=" ">
<polygon fill="white" stroke="#bfbfbf" points="208,-56.5 208,-75.5 285,-75.5 285,-56.5 208,-56.5"/>
<text text-anchor="middle" x="246.5" y="-63.5" font-family="Jetbrains Mono" font-size="10.00">sys/stat.h</text>
</a>
</g>
</g>
<!-- Node1&#45;&gt;Node4 -->
<g id="edge3" class="edge">
<title>Node1&#45;&gt;Node4</title>
<path fill="none" stroke="midnightblue" d="M545.88,-114.79C489.69,-106.85 389.93,-92.35 295.24,-76.25"/>
<polygon fill="midnightblue" stroke="midnightblue" points="295.65,-72.77 285.21,-74.54 294.47,-79.67 295.65,-72.77"/>
</g>
<!-- Node5 -->
<g id="node5" class="node">
<title>Node5</title>
<g id="a_node5"><a xlink:title=" ">
<polygon fill="white" stroke="#bfbfbf" points="303,-56.5 303,-75.5 380,-75.5 380,-56.5 303,-56.5"/>
<text text-anchor="middle" x="341.5" y="-63.5" font-family="Jetbrains Mono" font-size="10.00">sys/wait.h</text>
</a>
</g>
</g>
<!-- Node1&#45;&gt;Node5 -->
<g id="edge4" class="edge">
<title>Node1&#45;&gt;Node5</title>
<path fill="none" stroke="midnightblue" d="M551.05,-112.44C507.48,-103 437.3,-87.78 390.31,-77.59"/>
<polygon fill="midnightblue" stroke="midnightblue" points="390.87,-74.13 380.36,-75.43 389.39,-80.97 390.87,-74.13"/>
</g>
<!-- Node6 -->
<g id="node6" class="node">
<title>Node6</title>
<g id="a_node6"><a xlink:title=" ">
<polygon fill="white" stroke="#bfbfbf" points="398,-56.5 398,-75.5 463,-75.5 463,-56.5 398,-56.5"/>
<text text-anchor="middle" x="430.5" y="-63.5" font-family="Jetbrains Mono" font-size="10.00">stdlib.h</text>
</a>
</g>
</g>
<!-- Node1&#45;&gt;Node6 -->
<g id="edge5" class="edge">
<title>Node1&#45;&gt;Node6</title>
<path fill="none" stroke="midnightblue" d="M565.15,-112.44C538.23,-103.36 495.5,-88.94 465.41,-78.78"/>
<polygon fill="midnightblue" stroke="midnightblue" points="466.33,-75.4 455.73,-75.52 464.09,-82.03 466.33,-75.4"/>
</g>
<!-- Node7 -->
<g id="node7" class="node">
<title>Node7</title>
<g id="a_node7"><a xlink:title=" ">
<polygon fill="white" stroke="#bfbfbf" points="481,-56.5 481,-75.5 540,-75.5 540,-56.5 481,-56.5"/>
<text text-anchor="middle" x="510.5" y="-63.5" font-family="Jetbrains Mono" font-size="10.00">stdio.h</text>
</a>
</g>
</g>
<!-- Node1&#45;&gt;Node7 -->
<g id="edge6" class="edge">
<title>Node1&#45;&gt;Node7</title>
<path fill="none" stroke="midnightblue" d="M577.65,-112.32C565.28,-103.98 546.37,-91.21 531.76,-81.35"/>
<polygon fill="midnightblue" stroke="midnightblue" points="533.57,-78.35 523.32,-75.65 529.65,-84.15 533.57,-78.35"/>
</g>
<!-- Node8 -->
<g id="node8" class="node">
<title>Node8</title>
<g id="a_node8"><a xlink:title=" ">
<polygon fill="white" stroke="#bfbfbf" points="558,-56.5 558,-75.5 623,-75.5 623,-56.5 558,-56.5"/>
<text text-anchor="middle" x="590.5" y="-63.5" font-family="Jetbrains Mono" font-size="10.00">string.h</text>
</a>
</g>
</g>
<!-- Node1&#45;&gt;Node8 -->
<g id="edge7" class="edge">
<title>Node1&#45;&gt;Node8</title>
<path fill="none" stroke="midnightblue" d="M590.5,-112.08C590.5,-105.01 590.5,-94.86 590.5,-85.99"/>
<polygon fill="midnightblue" stroke="midnightblue" points="594,-85.75 590.5,-75.75 587,-85.75 594,-85.75"/>
</g>
<!-- Node9 -->
<g id="node9" class="node">
<title>Node9</title>
<g id="a_node9"><a xlink:title=" ">
<polygon fill="white" stroke="#bfbfbf" points="641,-56.5 641,-75.5 706,-75.5 706,-56.5 641,-56.5"/>
<text text-anchor="middle" x="673.5" y="-63.5" font-family="Jetbrains Mono" font-size="10.00">assert.h</text>
</a>
</g>
</g>
<!-- Node1&#45;&gt;Node9 -->
<g id="edge8" class="edge">
<title>Node1&#45;&gt;Node9</title>
<path fill="none" stroke="midnightblue" d="M603.84,-112.32C616.66,-103.98 636.28,-91.21 651.44,-81.35"/>
<polygon fill="midnightblue" stroke="midnightblue" points="653.72,-84.04 660.2,-75.65 649.91,-78.17 653.72,-84.04"/>
</g>
<!-- Node10 -->
<g id="node10" class="node">
<title>Node10</title>
<g id="a_node10"><a xlink:title=" ">
<polygon fill="white" stroke="#bfbfbf" points="687,-0.5 687,-19.5 782,-19.5 782,-0.5 687,-0.5"/>
<text text-anchor="middle" x="734.5" y="-7.5" font-family="Jetbrains Mono" font-size="10.00">util/common.h</text>
</a>
</g>
</g>
<!-- Node1&#45;&gt;Node10 -->
<g id="edge9" class="edge">
<title>Node1&#45;&gt;Node10</title>
<path fill="none" stroke="midnightblue" d="M635.23,-114.9C661.59,-109.09 693.74,-97.82 714.5,-76 726.32,-63.58 731.16,-44.34 733.14,-30.01"/>
<polygon fill="midnightblue" stroke="midnightblue" points="736.65,-30.1 734.2,-19.8 729.69,-29.39 736.65,-30.1"/>
</g>
<!-- Node11 -->
<g id="node11" class="node">
<title>Node11</title>
<g id="a_node11"><a xlink:title=" ">
<polygon fill="white" stroke="#bfbfbf" points="980,-0.5 980,-19.5 1075,-19.5 1075,-0.5 980,-0.5"/>
<text text-anchor="middle" x="1027.5" y="-7.5" font-family="Jetbrains Mono" font-size="10.00">util/pqueue.h</text>
</a>
</g>
</g>
<!-- Node1&#45;&gt;Node11 -->
<g id="edge10" class="edge">
<title>Node1&#45;&gt;Node11</title>
<path fill="none" stroke="midnightblue" d="M635.25,-120.32C751.71,-118.07 1057.3,-109.06 1087.5,-76 1103.87,-58.08 1077.17,-37.52 1054.33,-24.4"/>
<polygon fill="midnightblue" stroke="midnightblue" points="1056,-21.33 1045.55,-19.6 1052.64,-27.47 1056,-21.33"/>
</g>
<!-- Node12 -->
<g id="node12" class="node">
<title>Node12</title>
<g id="a_node12"><a xlink:title=" ">
<polygon fill="white" stroke="#bfbfbf" points="852,-56.5 852,-75.5 977,-75.5 977,-56.5 852,-56.5"/>
<text text-anchor="middle" x="914.5" y="-63.5" font-family="Jetbrains Mono" font-size="10.00">util/pqueue_task.h</text>
</a>
</g>
</g>
<!-- Node1&#45;&gt;Node12 -->
<g id="edge11" class="edge">
<title>Node1&#45;&gt;Node12</title>
<path fill="none" stroke="midnightblue" d="M635.21,-113.55C691.9,-104.1 789.87,-87.77 853.42,-77.18"/>
<polygon fill="midnightblue" stroke="midnightblue" points="854.02,-80.63 863.31,-75.53 852.87,-73.72 854.02,-80.63"/>
</g>
<!-- Node13 -->
<g id="node13" class="node">
<title>Node13</title>
<g id="a_node13"><a xlink:title=" ">
<polygon fill="white" stroke="#bfbfbf" points="995,-56.5 995,-75.5 1078,-75.5 1078,-56.5 995,-56.5"/>
<text text-anchor="middle" x="1036.5" y="-63.5" font-family="Jetbrains Mono" font-size="10.00">util/safe.h</text>
</a>
</g>
</g>
<!-- Node1&#45;&gt;Node13 -->
<g id="edge12" class="edge">
<title>Node1&#45;&gt;Node13</title>
<path fill="none" stroke="midnightblue" d="M635.16,-116.88C706.84,-110.06 852.19,-95.37 984.86,-76.17"/>
<polygon fill="midnightblue" stroke="midnightblue" points="985.4,-79.62 994.79,-74.72 984.39,-72.7 985.4,-79.62"/>
</g>
<!-- Node14 -->
<g id="node14" class="node">
<title>Node14</title>
<g id="a_node14"><a xlink:href="__server_8h.html" target="_top" xlink:title=" ">
<polygon fill="white" stroke="black" points="763,-56.5 763,-75.5 834,-75.5 834,-56.5 763,-56.5"/>
<text text-anchor="middle" x="798.5" y="-63.5" font-family="Jetbrains Mono" font-size="10.00">_server.h</text>
</a>
</g>
</g>
<!-- Node1&#45;&gt;Node14 -->
<g id="edge13" class="edge">
<title>Node1&#45;&gt;Node14</title>
<path fill="none" stroke="midnightblue" d="M623.46,-112.44C659.29,-103.14 716.66,-88.25 755.89,-78.06"/>
<polygon fill="midnightblue" stroke="midnightblue" points="756.9,-81.42 765.7,-75.52 755.14,-74.64 756.9,-81.42"/>
</g>
<!-- Node14&#45;&gt;Node10 -->
<g id="edge16" class="edge">
<title>Node14&#45;&gt;Node10</title>
<path fill="none" stroke="midnightblue" d="M788.22,-56.32C778.66,-48.26 764.22,-36.08 752.72,-26.37"/>
<polygon fill="midnightblue" stroke="midnightblue" points="754.87,-23.61 744.97,-19.83 750.36,-28.96 754.87,-23.61"/>
</g>
<!-- Node14&#45;&gt;Node11 -->
<g id="edge15" class="edge">
<title>Node14&#45;&gt;Node11</title>
<path fill="none" stroke="midnightblue" d="M834.28,-56.56C873.96,-47.21 938.08,-32.08 981.47,-21.85"/>
<polygon fill="midnightblue" stroke="midnightblue" points="982.28,-25.26 991.21,-19.56 980.68,-18.45 982.28,-25.26"/>
</g>
<!-- Node15 -->
<g id="node15" class="node">
<title>Node15</title>
<g id="a_node15"><a xlink:title=" ">
<polygon fill="white" stroke="#bfbfbf" points="800,-0.5 800,-19.5 883,-19.5 883,-0.5 800,-0.5"/>
<text text-anchor="middle" x="841.5" y="-7.5" font-family="Jetbrains Mono" font-size="10.00">sys/types.h</text>
</a>
</g>
</g>
<!-- Node14&#45;&gt;Node15 -->
<g id="edge14" class="edge">
<title>Node14&#45;&gt;Node15</title>
<path fill="none" stroke="midnightblue" d="M805.6,-56.08C811.74,-48.38 820.77,-37.03 828.24,-27.65"/>
<polygon fill="midnightblue" stroke="midnightblue" points="831.04,-29.75 834.53,-19.75 825.56,-25.39 831.04,-29.75"/>
</g>
</g>
</svg>
