<?xml version="1.0" encoding="UTF-8" standalone="no"?>
<!DOCTYPE svg PUBLIC "-//W3C//DTD SVG 1.1//EN"
 "http://www.w3.org/Graphics/SVG/1.1/DTD/svg11.dtd">
<!-- Generated by graphviz version 3.0.0 (0)
 -->
<!-- Title: deal_with_message Pages: 1 -->
<svg width="448pt" height="28pt"
 viewBox="0.00 0.00 448.00 28.00" xmlns="http://www.w3.org/2000/svg" xmlns:xlink="http://www.w3.org/1999/xlink">
<g id="graph0" class="graph" transform="scale(1 1) rotate(0) translate(4 24)">
<title>deal_with_message</title>
<polygon fill="white" stroke="transparent" points="-4,4 -4,-24 444,-24 444,4 -4,4"/>
<!-- Node1 -->
<g id="node1" class="node">
<title>Node1</title>
<g id="a_node1"><a xlink:title=" ">
<polygon fill="#bfbfbf" stroke="black" points="321,-0.5 321,-19.5 440,-19.5 440,-0.5 321,-0.5"/>
<text text-anchor="middle" x="380.5" y="-7.5" font-family="Jetbrains Mono" font-size="10.00">deal_with_message</text>
</a>
</g>
</g>
<!-- Node2 -->
<g id="node2" class="node">
<title>Node2</title>
<g id="a_node2"><a xlink:href="server_8c.html#a04b1d2c92a7ccdfb18a7ba95c47d2ee7" target="_top" xlink:title=" ">
<polygon fill="white" stroke="black" points="214,-0.5 214,-19.5 285,-19.5 285,-0.5 214,-0.5"/>
<text text-anchor="middle" x="249.5" y="-7.5" font-family="Jetbrains Mono" font-size="10.00">blockRead</text>
</a>
</g>
</g>
<!-- Node1&#45;&gt;Node2 -->
<g id="edge1" class="edge">
<title>Node1&#45;&gt;Node2</title>
<path fill="none" stroke="midnightblue" d="M310.43,-10C301.73,-10 293.14,-10 285.3,-10"/>
<polygon fill="midnightblue" stroke="midnightblue" points="310.66,-13.5 320.66,-10 310.66,-6.5 310.66,-13.5"/>
</g>
<!-- Node3 -->
<g id="node3" class="node">
<title>Node3</title>
<g id="a_node3"><a xlink:href="server_8c.html#a02c1f2005b74147f6b502f0790ac668f" target="_top" xlink:title=" ">
<polygon fill="white" stroke="black" points="77,-0.5 77,-19.5 178,-19.5 178,-0.5 77,-0.5"/>
<text text-anchor="middle" x="127.5" y="-7.5" font-family="Jetbrains Mono" font-size="10.00">listening_loop</text>
</a>
</g>
</g>
<!-- Node2&#45;&gt;Node3 -->
<g id="edge2" class="edge">
<title>Node2&#45;&gt;Node3</title>
<path fill="none" stroke="midnightblue" d="M203.61,-10C195.35,-10 186.69,-10 178.3,-10"/>
<polygon fill="midnightblue" stroke="midnightblue" points="203.79,-13.5 213.79,-10 203.79,-6.5 203.79,-13.5"/>
</g>
<!-- Node4 -->
<g id="node4" class="node">
<title>Node4</title>
<g id="a_node4"><a xlink:href="server_8c.html#a0ddf1224851353fc92bfbff6f499fa97" target="_top" xlink:title=" ">
<polygon fill="white" stroke="black" points="0,-0.5 0,-19.5 41,-19.5 41,-0.5 0,-0.5"/>
<text text-anchor="middle" x="20.5" y="-7.5" font-family="Jetbrains Mono" font-size="10.00">main</text>
</a>
</g>
</g>
<!-- Node3&#45;&gt;Node4 -->
<g id="edge3" class="edge">
<title>Node3&#45;&gt;Node4</title>
<path fill="none" stroke="midnightblue" d="M66.72,-10C57.53,-10 48.64,-10 41.2,-10"/>
<polygon fill="midnightblue" stroke="midnightblue" points="66.77,-13.5 76.77,-10 66.77,-6.5 66.77,-13.5"/>
</g>
</g>
</svg>
