<?xml version="1.0" encoding="UTF-8" standalone="no"?>
<!DOCTYPE svg PUBLIC "-//W3C//DTD SVG 1.1//EN"
 "http://www.w3.org/Graphics/SVG/1.1/DTD/svg11.dtd">
<!-- Generated by graphviz version 3.0.0 (0)
 -->
<!-- Title: task_t Pages: 1 -->
<svg width="515pt" height="128pt"
 viewBox="0.00 0.00 514.50 128.00" xmlns="http://www.w3.org/2000/svg" xmlns:xlink="http://www.w3.org/1999/xlink">
<g id="graph0" class="graph" transform="scale(1 1) rotate(0) translate(4 124)">
<title>task_t</title>
<polygon fill="white" stroke="transparent" points="-4,4 -4,-124 510.5,-124 510.5,4 -4,4"/>
<!-- Node1 -->
<g id="node1" class="node">
<title>Node1</title>
<g id="a_node1"><a xlink:title=" ">
<polygon fill="#bfbfbf" stroke="black" points="214,-0.5 214,-19.5 267,-19.5 267,-0.5 214,-0.5"/>
<text text-anchor="middle" x="240.5" y="-7.5" font-family="Jetbrains Mono" font-size="10.00">task_t</text>
</a>
</g>
</g>
<!-- Node2 -->
<g id="node2" class="node">
<title>Node2</title>
<g id="a_node2"><a xlink:title=" ">
<polygon fill="white" stroke="black" points="0,-100.5 0,-119.5 53,-119.5 53,-100.5 0,-100.5"/>
<text text-anchor="middle" x="26.5" y="-107.5" font-family="Jetbrains Mono" font-size="10.00">size_t</text>
</a>
</g>
</g>
<!-- Node2&#45;&gt;Node1 -->
<g id="edge1" class="edge">
<title>Node2&#45;&gt;Node1</title>
<path fill="none" stroke="#9a32cd" stroke-dasharray="5,2" d="M37.58,-92.1C49.38,-75.55 69.63,-50.98 93.5,-38 131.8,-17.18 183.14,-12.06 213.91,-11"/>
<polygon fill="#9a32cd" stroke="#9a32cd" points="34.69,-90.12 31.92,-100.34 40.47,-94.08 34.69,-90.12"/>
<text text-anchor="middle" x="106" y="-57.5" font-family="Jetbrains Mono" font-size="10.00"> pos</text>
</g>
<!-- Node3 -->
<g id="node3" class="node">
<title>Node3</title>
<g id="a_node3"><a xlink:title=" ">
<polygon fill="white" stroke="black" points="71,-100.5 71,-119.5 160,-119.5 160,-100.5 71,-100.5"/>
<text text-anchor="middle" x="115.5" y="-107.5" font-family="Jetbrains Mono" font-size="10.00">pqueue_pri_t</text>
</a>
</g>
</g>
<!-- Node3&#45;&gt;Node1 -->
<g id="edge2" class="edge">
<title>Node3&#45;&gt;Node1</title>
<path fill="none" stroke="#9a32cd" stroke-dasharray="5,2" d="M119.59,-90.28C124.06,-74.2 132.76,-51.54 148.5,-38 166.79,-22.26 193.88,-15.69 213.93,-12.95"/>
<polygon fill="#9a32cd" stroke="#9a32cd" points="116.15,-89.61 117.15,-100.16 122.95,-91.29 116.15,-89.61"/>
<text text-anchor="middle" x="161" y="-57.5" font-family="Jetbrains Mono" font-size="10.00"> pri</text>
</g>
<!-- Node4 -->
<g id="node4" class="node">
<title>Node4</title>
<g id="a_node4"><a xlink:title=" ">
<polygon fill="white" stroke="black" points="178,-100.5 178,-119.5 231,-119.5 231,-100.5 178,-100.5"/>
<text text-anchor="middle" x="204.5" y="-107.5" font-family="Jetbrains Mono" font-size="10.00">char *</text>
</a>
</g>
</g>
<!-- Node4&#45;&gt;Node1 -->
<g id="edge3" class="edge">
<title>Node4&#45;&gt;Node1</title>
<path fill="none" stroke="#9a32cd" stroke-dasharray="5,2" d="M189.59,-92.19C187.5,-89 185.67,-85.54 184.5,-82 178.37,-63.43 174.1,-54.56 184.5,-38 191.04,-27.58 202.86,-21.09 213.96,-17.09"/>
<polygon fill="#9a32cd" stroke="#9a32cd" points="186.98,-94.54 195.84,-100.35 192.54,-90.28 186.98,-94.54"/>
<text text-anchor="middle" x="230" y="-74" font-family="Jetbrains Mono" font-size="10.00"> client_pid_str</text>
<text text-anchor="middle" x="230" y="-63" font-family="Jetbrains Mono" font-size="10.00">dst</text>
<text text-anchor="middle" x="230" y="-52" font-family="Jetbrains Mono" font-size="10.00">ops</text>
<text text-anchor="middle" x="230" y="-41" font-family="Jetbrains Mono" font-size="10.00">src</text>
</g>
<!-- Node5 -->
<g id="node5" class="node">
<title>Node5</title>
<g id="a_node5"><a xlink:title=" ">
<polygon fill="white" stroke="black" points="280,-100.5 280,-119.5 315,-119.5 315,-100.5 280,-100.5"/>
<text text-anchor="middle" x="297.5" y="-107.5" font-family="Jetbrains Mono" font-size="10.00">int</text>
</a>
</g>
</g>
<!-- Node5&#45;&gt;Node1 -->
<g id="edge4" class="edge">
<title>Node5&#45;&gt;Node1</title>
<path fill="none" stroke="#9a32cd" stroke-dasharray="5,2" d="M294.89,-90.2C292.06,-75.03 286.41,-53.71 275.5,-38 270.33,-30.56 262.49,-24.24 255.54,-19.6"/>
<polygon fill="#9a32cd" stroke="#9a32cd" points="291.49,-91.09 296.54,-100.4 298.4,-89.97 291.49,-91.09"/>
<text text-anchor="middle" x="317" y="-57.5" font-family="Jetbrains Mono" font-size="10.00"> num_ops</text>
</g>
<!-- Node6 -->
<g id="node6" class="node">
<title>Node6</title>
<g id="a_node6"><a xlink:title=" ">
<polygon fill="white" stroke="black" points="346,-100.5 346,-119.5 393,-119.5 393,-100.5 346,-100.5"/>
<text text-anchor="middle" x="369.5" y="-107.5" font-family="Jetbrains Mono" font-size="10.00">pid_t</text>
</a>
</g>
</g>
<!-- Node6&#45;&gt;Node1 -->
<g id="edge5" class="edge">
<title>Node6&#45;&gt;Node1</title>
<path fill="none" stroke="#9a32cd" stroke-dasharray="5,2" d="M367.98,-89.8C365.68,-73.75 359.93,-51.39 345.5,-38 324.26,-18.28 290.57,-12.51 267.11,-11.05"/>
<polygon fill="#9a32cd" stroke="#9a32cd" points="364.55,-90.6 369.11,-100.16 371.5,-89.83 364.55,-90.6"/>
<text text-anchor="middle" x="391" y="-57.5" font-family="Jetbrains Mono" font-size="10.00"> monitor</text>
</g>
<!-- Node7 -->
<g id="node7" class="node">
<title>Node7</title>
<g id="a_node7"><a xlink:title=" ">
<polygon fill="white" stroke="black" points="421,-100.5 421,-119.5 462,-119.5 462,-100.5 421,-100.5"/>
<text text-anchor="middle" x="441.5" y="-107.5" font-family="Jetbrains Mono" font-size="10.00">char</text>
</a>
</g>
</g>
<!-- Node7&#45;&gt;Node1 -->
<g id="edge6" class="edge">
<title>Node7&#45;&gt;Node1</title>
<path fill="none" stroke="#9a32cd" stroke-dasharray="5,2" d="M440.99,-90.46C439.49,-74.13 434.61,-50.99 419.5,-38 397.16,-18.79 311.52,-13.24 267.29,-11.64"/>
<polygon fill="#9a32cd" stroke="#9a32cd" points="437.5,-90.68 441.57,-100.46 444.49,-90.28 437.5,-90.68"/>
<text text-anchor="middle" x="473" y="-57.5" font-family="Jetbrains Mono" font-size="10.00"> ops_totals</text>
</g>
</g>
</svg>
